<svg width="149" height="148" viewBox="0 0 149 148" fill="none" xmlns="http://www.w3.org/2000/svg">
<g filter="url(#filter0_d_292_2699)">
<path d="M122.669 24.0697C113.81 20.0046 104.31 17.0096 94.3764 15.2943C94.1955 15.2612 94.0148 15.3439 93.9216 15.5094C92.6998 17.6825 91.3464 20.5175 90.3987 22.7458C79.7149 21.1464 69.0859 21.1464 58.6211 22.7458C57.6732 20.468 56.2706 17.6825 55.0433 15.5094C54.9501 15.3495 54.7694 15.2667 54.5885 15.2943C44.6608 17.0042 35.1605 19.9991 26.2956 24.0697C26.2188 24.1028 26.1531 24.158 26.1094 24.2296C8.08923 51.1514 3.15275 77.4114 5.57442 103.346C5.58538 103.473 5.6566 103.594 5.75522 103.671C17.6444 112.402 29.1611 117.703 40.464 121.216C40.6449 121.272 40.8366 121.205 40.9517 121.056C43.6254 117.405 46.0087 113.555 48.0522 109.507C48.1728 109.27 48.0577 108.988 47.8112 108.895C44.0308 107.46 40.4311 105.712 36.9684 103.726C36.6945 103.567 36.6726 103.175 36.9246 102.987C37.6533 102.441 38.3821 101.873 39.0779 101.299C39.2038 101.195 39.3792 101.173 39.5272 101.239C62.2754 111.625 86.9031 111.625 109.383 101.239C109.531 101.167 109.706 101.189 109.838 101.294C110.534 101.868 111.262 102.441 111.997 102.987C112.248 103.175 112.232 103.567 111.958 103.726C108.495 105.751 104.896 107.46 101.11 108.889C100.863 108.983 100.754 109.27 100.874 109.507C102.962 113.55 105.345 117.4 107.969 121.051C108.079 121.205 108.276 121.272 108.457 121.216C119.815 117.703 131.331 112.402 143.221 103.671C143.325 103.594 143.391 103.478 143.402 103.351C146.3 73.3683 138.547 47.3236 122.85 24.2351C122.812 24.158 122.746 24.1028 122.669 24.0697ZM51.4493 87.5545C44.6005 87.5545 38.9573 81.2668 38.9573 73.5449C38.9573 65.8229 44.4911 59.5352 51.4493 59.5352C58.4621 59.5352 64.0507 65.8781 63.9411 73.5449C63.9411 81.2668 58.4073 87.5545 51.4493 87.5545ZM97.6363 87.5545C90.7877 87.5545 85.1445 81.2668 85.1445 73.5449C85.1445 65.8229 90.678 59.5352 97.6363 59.5352C104.649 59.5352 110.238 65.8781 110.128 73.5449C110.128 81.2668 104.649 87.5545 97.6363 87.5545Z" fill="#1D60B9"/>
</g>
<defs>
<filter id="filter0_d_292_2699" x="0.820777" y="0" width="147.358" height="147.358" filterUnits="userSpaceOnUse" color-interpolation-filters="sRGB">
<feFlood flood-opacity="0" result="BackgroundImageFix"/>
<feColorMatrix in="SourceAlpha" type="matrix" values="0 0 0 0 0 0 0 0 0 0 0 0 0 0 0 0 0 0 127 0" result="hardAlpha"/>
<feOffset dy="4.17922"/>
<feGaussianBlur stdDeviation="2.08961"/>
<feComposite in2="hardAlpha" operator="out"/>
<feColorMatrix type="matrix" values="0 0 0 0 0 0 0 0 0 0 0 0 0 0 0 0 0 0 0.25 0"/>
<feBlend mode="normal" in2="BackgroundImageFix" result="effect1_dropShadow_292_2699"/>
<feBlend mode="normal" in="SourceGraphic" in2="effect1_dropShadow_292_2699" result="shape"/>
</filter>
</defs>
</svg>
