<svg width="142" height="142" viewBox="0 0 142 142" fill="none" xmlns="http://www.w3.org/2000/svg">
<g filter="url(#filter0_d_292_2693)">
<g clip-path="url(#clip0_292_2693)">
<path d="M70.5196 11.9787C88.2927 11.9787 90.3975 12.0567 97.3872 12.3685C103.883 12.6543 107.391 13.7456 109.73 14.6551C112.822 15.8504 115.056 17.3055 117.369 19.6181C119.708 21.9566 121.137 24.1653 122.332 27.2574C123.242 29.596 124.333 33.1299 124.619 39.5999C124.93 46.6157 125.008 48.7204 125.008 66.4676C125.008 84.2408 124.93 86.3455 124.619 93.3353C124.333 99.8313 123.242 103.339 122.332 105.678C121.137 108.77 119.682 111.005 117.369 113.317C115.03 115.656 112.822 117.085 109.73 118.28C107.391 119.19 103.857 120.281 97.3872 120.567C90.3715 120.878 88.2668 120.956 70.5196 120.956C52.7464 120.956 50.6416 120.878 43.6519 120.567C37.1558 120.281 33.648 119.19 31.3094 118.28C28.2173 117.085 25.9826 115.63 23.67 113.317C21.3315 110.979 19.9023 108.77 18.7071 105.678C17.7976 103.339 16.7063 99.8053 16.4204 93.3353C16.1086 86.3195 16.0307 84.2148 16.0307 66.4676C16.0307 48.6944 16.1086 46.5897 16.4204 39.5999C16.7063 33.1039 17.7976 29.596 18.7071 27.2574C19.9023 24.1653 21.3574 21.9307 23.67 19.6181C26.0086 17.2795 28.2173 15.8504 31.3094 14.6551C33.648 13.7456 37.1818 12.6543 43.6519 12.3685C50.6416 12.0567 52.7464 11.9787 70.5196 11.9787ZM70.5196 0C52.4605 0 50.1999 0.0779526 43.1062 0.389763C36.0385 0.701573 31.1795 1.84488 26.97 3.48188C22.5787 5.19684 18.863 7.45747 15.1732 11.1732C11.4575 14.863 9.19684 18.5787 7.48188 22.944C5.84488 27.1795 4.70157 32.0125 4.38976 39.0802C4.07795 46.1999 4 48.4605 4 66.5195C4 84.5786 4.07795 86.8392 4.38976 93.9329C4.70157 101.001 5.84488 105.86 7.48188 110.069C9.19684 114.46 11.4575 118.176 15.1732 121.866C18.863 125.556 22.5787 127.842 26.944 129.531C31.1795 131.168 36.0125 132.312 43.0802 132.623C50.1739 132.935 52.4345 133.013 70.4936 133.013C88.5526 133.013 90.8132 132.935 97.9069 132.623C104.975 132.312 109.834 131.168 114.043 129.531C118.408 127.842 122.124 125.556 125.814 121.866C129.504 118.176 131.79 114.46 133.479 110.095C135.116 105.86 136.26 101.027 136.571 93.9589C136.883 86.8652 136.961 84.6046 136.961 66.5455C136.961 48.4865 136.883 46.2259 136.571 39.1322C136.26 32.0645 135.116 27.2055 133.479 22.996C131.842 18.5787 129.582 14.863 125.866 11.1732C122.176 7.48345 118.46 5.19684 114.095 3.50787C109.86 1.87086 105.027 0.727558 97.9589 0.415747C90.8392 0.0779526 88.5786 0 70.5196 0Z" fill="#1D60B9"/>
<path d="M70.5196 32.3496C51.655 32.3496 36.3503 47.6543 36.3503 66.5188C36.3503 85.3834 51.655 100.688 70.5196 100.688C89.3841 100.688 104.689 85.3834 104.689 66.5188C104.689 47.6543 89.3841 32.3496 70.5196 32.3496ZM70.5196 88.6833C58.281 88.6833 48.355 78.7574 48.355 66.5188C48.355 54.2803 58.281 44.3543 70.5196 44.3543C82.7581 44.3543 92.6841 54.2803 92.6841 66.5188C92.6841 78.7574 82.7581 88.6833 70.5196 88.6833Z" fill="#1D60B9"/>
<path d="M114.017 31.0006C114.017 35.4179 110.431 38.9778 106.04 38.9778C101.623 38.9778 98.0627 35.3919 98.0627 31.0006C98.0627 26.5833 101.649 23.0234 106.04 23.0234C110.431 23.0234 114.017 26.6093 114.017 31.0006Z" fill="#1D60B9"/>
</g>
</g>
<defs>
<filter id="filter0_d_292_2693" x="0" y="0" width="141.039" height="141.039" filterUnits="userSpaceOnUse" color-interpolation-filters="sRGB">
<feFlood flood-opacity="0" result="BackgroundImageFix"/>
<feColorMatrix in="SourceAlpha" type="matrix" values="0 0 0 0 0 0 0 0 0 0 0 0 0 0 0 0 0 0 127 0" result="hardAlpha"/>
<feOffset dy="4"/>
<feGaussianBlur stdDeviation="2"/>
<feComposite in2="hardAlpha" operator="out"/>
<feColorMatrix type="matrix" values="0 0 0 0 0 0 0 0 0 0 0 0 0 0 0 0 0 0 0.25 0"/>
<feBlend mode="normal" in2="BackgroundImageFix" result="effect1_dropShadow_292_2693"/>
<feBlend mode="normal" in="SourceGraphic" in2="effect1_dropShadow_292_2693" result="shape"/>
</filter>
<clipPath id="clip0_292_2693">
<rect width="133.039" height="133.039" fill="white" transform="translate(4)"/>
</clipPath>
</defs>
</svg>
