<svg width="429" height="429" viewBox="0 0 429 429" fill="none" xmlns="http://www.w3.org/2000/svg">
<g filter="url(#filter0_d_283_29)">
<rect x="45" y="27" width="357" height="357" rx="176.733" fill="#F6F1E3"/>
<rect x="31.745" y="13.745" width="383.51" height="383.51" rx="189.988" stroke="#8E9BC7" stroke-width="26.5099"/>
</g>
<g filter="url(#filter1_d_283_29)">
<rect x="45" y="27" width="357" height="357" rx="176.733" fill="#F6F1E3"/>
<rect x="36.1634" y="18.1634" width="374.673" height="374.673" rx="185.569" stroke="#1D60B9" stroke-width="17.6733"/>
</g>
<g filter="url(#filter2_i_283_29)">
<rect x="45" y="27" width="357" height="357" rx="176.733" fill="#F6F1E3"/>
</g>
<g filter="url(#filter3_di_283_29)">
<path d="M267.033 303.868C259.256 315.886 245.53 312.41 239.639 309.17L215.78 293.264C215.551 293.117 214.741 292.277 212.245 290.613C209.594 288.846 207.238 291.497 206.06 293.264L200.758 306.519C200.758 306.519 196.687 315.775 191.921 319.774C189.815 321.542 170.713 333.383 156.575 320.658C142.436 307.933 146.56 292.97 150.389 287.079L163.644 268.522C168.592 264.987 165.706 262.336 163.644 261.452C155.396 256.445 136.957 245.016 129.181 239.361C121.405 233.705 125.941 221.098 129.181 215.502C134.188 207.549 144.557 190.936 145.971 188.108C147.385 185.281 145.382 183.985 144.203 183.69C135.956 179.272 119.284 170.082 118.577 168.668C117.693 166.9 108.857 158.947 110.624 148.344C112.391 137.74 115.042 134.205 124.763 126.252C132.539 119.89 145.087 123.601 150.389 126.252C156.28 129.787 168.592 137.563 170.713 140.391C172.834 143.218 175.132 141.569 176.015 140.391C179.255 133.91 187.68 118.476 195.456 108.579C203.232 98.6816 214.013 100.92 218.431 103.277C227.268 107.695 245.648 117.415 248.476 120.95C251.303 124.485 253.778 122.423 254.661 120.95C256.134 115.648 261.024 103.1 268.8 95.3237C278.52 85.6034 291.775 83.836 305.914 93.5563C317.225 101.333 314.75 117.415 312.099 124.485C308.565 130.376 300.612 142.865 297.077 145.692C293.542 148.52 295.604 150.994 297.077 151.878C302.085 154.529 315.104 161.775 327.122 169.551C339.139 177.328 335.664 191.054 332.424 196.945L314.75 224.339C312.983 226.99 308.943 230.524 307.681 226.106C305.914 219.92 272.663 193.41 254.661 220.804C237.821 246.43 271.451 264.987 285.589 261.452C293.848 259.388 292.07 265.871 290.008 268.522C285.589 275.296 274.809 291.85 267.033 303.868Z" fill="#D73D33"/>
<path d="M267.033 303.868C259.256 315.886 245.53 312.41 239.639 309.17L215.78 293.264C215.551 293.117 214.741 292.277 212.245 290.613C209.594 288.846 207.238 291.497 206.06 293.264L200.758 306.519C200.758 306.519 196.687 315.775 191.921 319.774C189.815 321.542 170.713 333.383 156.575 320.658C142.436 307.933 146.56 292.97 150.389 287.079L163.644 268.522C168.592 264.987 165.706 262.336 163.644 261.452C155.396 256.445 136.957 245.016 129.181 239.361C121.405 233.705 125.941 221.098 129.181 215.502C134.188 207.549 144.557 190.936 145.971 188.108C147.385 185.281 145.382 183.985 144.203 183.69C135.956 179.272 119.284 170.082 118.577 168.668C117.693 166.9 108.857 158.947 110.624 148.344C112.391 137.74 115.042 134.205 124.763 126.252C132.539 119.89 145.087 123.601 150.389 126.252C156.28 129.787 168.592 137.563 170.713 140.391C172.834 143.218 175.132 141.569 176.015 140.391C179.255 133.91 187.68 118.476 195.456 108.579C203.232 98.6816 214.013 100.92 218.431 103.277C227.268 107.695 245.648 117.415 248.476 120.95C251.303 124.485 253.778 122.423 254.661 120.95C256.134 115.648 261.024 103.1 268.8 95.3237C278.52 85.6034 291.775 83.836 305.914 93.5563C317.225 101.333 314.75 117.415 312.099 124.485C308.565 130.376 300.612 142.865 297.077 145.692C293.542 148.52 295.604 150.994 297.077 151.878C302.085 154.529 315.104 161.775 327.122 169.551C339.139 177.328 335.664 191.054 332.424 196.945L314.75 224.339C312.983 226.99 308.943 230.524 307.681 226.106C305.914 219.92 272.663 193.41 254.661 220.804C237.821 246.43 271.451 264.987 285.589 261.452C293.848 259.388 292.07 265.871 290.008 268.522C285.589 275.296 274.809 291.85 267.033 303.868Z" stroke="#1D60B9" stroke-width="6"/>
</g>
<defs>
<filter id="filter0_d_283_29" x="0.816967" y="0.490234" width="427.693" height="427.693" filterUnits="userSpaceOnUse" color-interpolation-filters="sRGB">
<feFlood flood-opacity="0" result="BackgroundImageFix"/>
<feColorMatrix in="SourceAlpha" type="matrix" values="0 0 0 0 0 0 0 0 0 0 0 0 0 0 0 0 0 0 127 0" result="hardAlpha"/>
<feOffset dx="-17.6733" dy="17.6733"/>
<feComposite in2="hardAlpha" operator="out"/>
<feColorMatrix type="matrix" values="0 0 0 0 0.171681 0 0 0 0 0.226566 0 0 0 0 0.35829 0 0 0 1 0"/>
<feBlend mode="normal" in2="BackgroundImageFix" result="effect1_dropShadow_283_29"/>
<feBlend mode="normal" in="SourceGraphic" in2="effect1_dropShadow_283_29" result="shape"/>
</filter>
<filter id="filter1_d_283_29" x="20.2574" y="9.32617" width="406.485" height="406.486" filterUnits="userSpaceOnUse" color-interpolation-filters="sRGB">
<feFlood flood-opacity="0" result="BackgroundImageFix"/>
<feColorMatrix in="SourceAlpha" type="matrix" values="0 0 0 0 0 0 0 0 0 0 0 0 0 0 0 0 0 0 127 0" result="hardAlpha"/>
<feOffset dy="7.06931"/>
<feGaussianBlur stdDeviation="3.53465"/>
<feComposite in2="hardAlpha" operator="out"/>
<feColorMatrix type="matrix" values="0 0 0 0 0 0 0 0 0 0 0 0 0 0 0 0 0 0 0.25 0"/>
<feBlend mode="normal" in2="BackgroundImageFix" result="effect1_dropShadow_283_29"/>
<feBlend mode="normal" in="SourceGraphic" in2="effect1_dropShadow_283_29" result="shape"/>
</filter>
<filter id="filter2_i_283_29" x="45" y="27" width="357" height="357" filterUnits="userSpaceOnUse" color-interpolation-filters="sRGB">
<feFlood flood-opacity="0" result="BackgroundImageFix"/>
<feBlend mode="normal" in="SourceGraphic" in2="BackgroundImageFix" result="shape"/>
<feColorMatrix in="SourceAlpha" type="matrix" values="0 0 0 0 0 0 0 0 0 0 0 0 0 0 0 0 0 0 127 0" result="hardAlpha"/>
<feOffset dx="-8.83663" dy="8.83663"/>
<feComposite in2="hardAlpha" operator="arithmetic" k2="-1" k3="1"/>
<feColorMatrix type="matrix" values="0 0 0 0 0.171681 0 0 0 0 0.226566 0 0 0 0 0.35829 0 0 0 1 0"/>
<feBlend mode="normal" in2="shape" result="effect1_innerShadow_283_29"/>
</filter>
<filter id="filter3_di_283_29" x="96.7867" y="84.0898" width="241.728" height="255.991" filterUnits="userSpaceOnUse" color-interpolation-filters="sRGB">
<feFlood flood-opacity="0" result="BackgroundImageFix"/>
<feColorMatrix in="SourceAlpha" type="matrix" values="0 0 0 0 0 0 0 0 0 0 0 0 0 0 0 0 0 0 127 0" result="hardAlpha"/>
<feOffset dx="-10.604" dy="10.604"/>
<feComposite in2="hardAlpha" operator="out"/>
<feColorMatrix type="matrix" values="0 0 0 0 0.171681 0 0 0 0 0.226566 0 0 0 0 0.35829 0 0 0 1 0"/>
<feBlend mode="normal" in2="BackgroundImageFix" result="effect1_dropShadow_283_29"/>
<feBlend mode="normal" in="SourceGraphic" in2="effect1_dropShadow_283_29" result="shape"/>
<feColorMatrix in="SourceAlpha" type="matrix" values="0 0 0 0 0 0 0 0 0 0 0 0 0 0 0 0 0 0 127 0" result="hardAlpha"/>
<feOffset dy="7.06931"/>
<feGaussianBlur stdDeviation="3.53465"/>
<feComposite in2="hardAlpha" operator="arithmetic" k2="-1" k3="1"/>
<feColorMatrix type="matrix" values="0 0 0 0 0 0 0 0 0 0 0 0 0 0 0 0 0 0 0.25 0"/>
<feBlend mode="normal" in2="shape" result="effect2_innerShadow_283_29"/>
</filter>
</defs>
</svg>
