<svg width="455" height="447" viewBox="0 0 455 447" fill="none" xmlns="http://www.w3.org/2000/svg">
<g filter="url(#filter0_d_283_57)">
<path d="M66 212.5C66 114.893 146.893 34 244.5 34C342.107 34 423 114.893 423 212.5C423 310.107 342.107 391 244.5 391C146.893 391 66 310.107 66 212.5Z" fill="#F6F1E3"/>
</g>
<g filter="url(#filter1_d_283_57)">
<path fill-rule="evenodd" clip-rule="evenodd" d="M244.5 417.51C132.252 417.51 39.4902 324.748 39.4902 212.5C39.4902 100.252 132.252 7.49023 244.5 7.49023C356.748 7.49023 449.51 100.252 449.51 212.5C449.51 324.748 356.748 417.51 244.5 417.51ZM244.5 34.0001C146.893 34.0001 66.0001 114.893 66.0001 212.5C66.0001 310.107 146.893 391 244.5 391C342.107 391 423 310.107 423 212.5C423 114.893 342.107 34.0001 244.5 34.0001Z" fill="#8E9BC7"/>
</g>
<g filter="url(#filter2_d_283_57)">
<path d="M66 212.5C66 114.893 146.893 34 244.5 34C342.107 34 423 114.893 423 212.5C423 310.107 342.107 391 244.5 391C146.893 391 66 310.107 66 212.5Z" fill="#F6F1E3"/>
</g>
<g filter="url(#filter3_d_283_57)">
<path fill-rule="evenodd" clip-rule="evenodd" d="M244.5 408.673C137.132 408.673 48.3267 319.867 48.3267 212.499C48.3267 105.132 137.132 16.3262 244.5 16.3262C351.867 16.3262 440.673 105.132 440.673 212.499C440.673 319.867 351.867 408.673 244.5 408.673ZM244.5 33.9994C146.893 33.9994 65.9999 114.893 65.9999 212.499C65.9999 310.106 146.893 390.999 244.5 390.999C342.107 390.999 423 310.106 423 212.499C423 114.893 342.107 33.9994 244.5 33.9994Z" fill="#1D60B9"/>
</g>
<g filter="url(#filter4_i_283_57)">
<path d="M66 212.5C66 114.893 146.893 34 244.5 34C342.107 34 423 114.893 423 212.5C423 310.107 342.107 391 244.5 391C146.893 391 66 310.107 66 212.5Z" fill="#F6F1E3"/>
</g>
<g filter="url(#filter5_di_283_57)">
<path d="M288.033 310.868C280.256 322.886 266.53 319.41 260.639 316.17L236.78 300.264C236.551 300.117 235.741 299.277 233.245 297.613C230.594 295.846 228.238 298.497 227.06 300.264L221.758 313.519C221.758 313.519 217.687 322.775 212.921 326.774C210.815 328.542 191.713 340.383 177.575 327.658C163.436 314.933 167.56 299.97 171.389 294.079L184.644 275.522C189.592 271.987 186.706 269.336 184.644 268.452C176.396 263.445 157.957 252.016 150.181 246.361C142.405 240.705 146.941 228.098 150.181 222.502C155.188 214.549 165.557 197.936 166.971 195.108C168.385 192.281 166.382 190.985 165.203 190.69C156.956 186.272 140.284 177.082 139.577 175.668C138.693 173.9 129.857 165.947 131.624 155.344C133.391 144.74 136.042 141.205 145.763 133.252C153.539 126.89 166.087 130.601 171.389 133.252C177.28 136.787 189.592 144.563 191.713 147.391C193.834 150.218 196.132 148.569 197.015 147.391C200.255 140.91 208.68 125.476 216.456 115.579C224.232 105.682 235.013 107.92 239.431 110.277C248.268 114.695 266.648 124.415 269.476 127.95C272.303 131.485 274.778 129.423 275.661 127.95C277.134 122.648 282.024 110.1 289.8 102.324C299.52 92.6034 312.775 90.836 326.914 100.556C338.225 108.333 335.75 124.415 333.099 131.485C329.565 137.376 321.612 149.865 318.077 152.692C314.542 155.52 316.604 157.994 318.077 158.878C323.085 161.529 336.104 168.775 348.122 176.551C360.139 184.328 356.664 198.054 353.424 203.945L335.75 231.338C333.983 233.989 329.943 237.524 328.681 233.106C326.914 226.92 293.663 200.41 275.661 227.804C258.821 253.43 292.451 271.987 306.589 268.452C314.848 266.388 313.07 272.871 311.008 275.522C306.589 282.296 295.809 298.85 288.033 310.868Z" fill="#D73D33"/>
</g>
<g filter="url(#filter6_i_283_57)">
<path fill-rule="evenodd" clip-rule="evenodd" d="M306.49 91.1573C313.603 90.6581 321.112 92.927 328.613 98.0843C335.256 102.651 337.725 109.61 338.233 116.05C338.738 122.448 337.355 128.68 335.908 132.538L335.813 132.794L335.672 133.028C333.883 136.01 330.979 140.656 328.067 144.927C326.612 147.062 325.136 149.13 323.782 150.862C322.476 152.533 321.132 154.09 319.951 155.035C319.424 155.457 319.223 155.751 319.154 155.877C319.171 155.904 319.196 155.937 319.231 155.978C319.332 156.095 319.46 156.201 319.573 156.276C324.7 158.994 337.714 166.244 349.752 174.033C356.693 178.524 359.227 184.861 359.492 190.822C359.75 196.631 357.874 202.079 356.052 205.391L356.002 205.483L338.259 232.984L338.247 233.003C337.222 234.54 335.402 236.587 333.319 237.581C332.255 238.088 330.608 238.556 328.895 237.827C327.14 237.08 326.238 235.476 325.797 233.931C325.797 233.933 325.797 233.932 325.795 233.928C325.783 233.898 325.71 233.717 325.482 233.369C325.235 232.991 324.873 232.517 324.383 231.962C323.405 230.853 322.023 229.534 320.305 228.155C316.864 225.394 312.258 222.535 307.221 220.678C302.175 218.817 296.885 218.028 291.947 219.134C287.097 220.219 282.28 223.195 278.168 229.452C274.326 235.299 273.508 240.481 274.348 244.903C275.202 249.393 277.839 253.462 281.536 256.853C285.233 260.243 289.861 262.83 294.382 264.353C298.966 265.897 303.094 266.234 305.862 265.542C308.166 264.966 310.308 264.834 312.102 265.502C314.144 266.264 315.27 267.884 315.614 269.645C315.919 271.213 315.602 272.78 315.184 273.988C314.77 275.188 314.151 276.34 313.459 277.255C309.003 284.088 298.289 300.54 290.551 312.498C286.06 319.439 279.723 321.973 273.762 322.238C267.953 322.496 262.505 320.621 259.193 318.799L259.081 318.737L235.116 302.761C234.851 302.583 234.573 302.337 234.536 302.305C234.395 302.185 234.22 302.036 233.984 301.846C233.512 301.467 232.758 300.894 231.581 300.11C231.516 300.066 231.472 300.045 231.447 300.035C231.411 300.044 231.324 300.074 231.182 300.162C230.72 300.45 230.195 301.02 229.722 301.687L224.524 314.681L224.504 314.727L221.758 313.519C224.504 314.727 224.504 314.727 224.504 314.727L224.503 314.729L224.502 314.732L224.487 314.766L224.446 314.856C224.411 314.934 224.361 315.044 224.297 315.184C224.168 315.463 223.98 315.861 223.741 316.349C223.264 317.322 222.576 318.664 221.729 320.14C220.089 323.001 217.663 326.712 214.85 329.073C213.442 330.254 207.714 333.873 200.443 335.572C193.071 337.295 183.621 337.135 175.568 329.888C160.005 315.881 164.506 299.163 168.874 292.444L168.91 292.389L182.493 273.371L182.9 273.081C183.782 272.451 184.159 271.993 184.306 271.76C184.283 271.736 184.255 271.709 184.221 271.679C184.017 271.498 183.735 271.327 183.462 271.21L183.268 271.127L183.087 271.017C174.866 266.026 156.313 254.53 148.417 248.787C143.246 245.027 142.446 239.081 143.073 234.039C143.703 228.971 145.828 224.034 147.585 220.999L147.613 220.951L147.642 220.904C150.143 216.932 153.982 210.799 157.371 205.308C160.812 199.731 163.658 195.027 164.287 193.767C164.324 193.694 164.352 193.63 164.375 193.575L164.115 193.51L163.787 193.335C159.648 191.118 153.392 187.701 148.072 184.656C145.417 183.136 142.965 181.692 141.12 180.528C140.202 179.949 139.393 179.414 138.77 178.958C138.462 178.733 138.155 178.494 137.889 178.255L137.885 178.251C137.714 178.098 137.227 177.662 136.906 177.034C136.912 177.046 136.915 177.052 136.915 177.053C136.912 177.054 136.829 176.927 136.558 176.585C136.378 176.358 136.224 176.168 136.048 175.952C135.863 175.724 135.654 175.468 135.368 175.108C134.407 173.904 133.178 172.29 132.027 170.351C129.736 166.493 127.62 161.12 128.665 154.85C129.579 149.367 130.775 145.364 133.202 141.66C135.577 138.035 138.997 134.912 143.863 130.93C148.614 127.043 154.625 126.384 159.794 126.886C164.99 127.391 169.807 129.107 172.731 130.569L172.834 130.62L172.933 130.68C175.909 132.465 180.505 135.321 184.637 138.096C186.702 139.482 188.68 140.868 190.295 142.103C191.808 143.261 193.3 144.507 194.113 145.591C194.205 145.713 194.282 145.8 194.344 145.862C194.397 145.821 194.447 145.776 194.491 145.732C197.866 139.026 206.255 123.706 214.097 113.725C223.1 102.267 235.656 104.883 240.806 107.61C245.256 109.836 252.089 113.386 258.184 116.834C261.236 118.56 264.137 120.28 266.473 121.808C267.64 122.571 268.696 123.306 269.573 123.986C270.41 124.634 271.236 125.348 271.818 126.076C272.24 126.603 272.534 126.804 272.66 126.874C272.687 126.856 272.72 126.831 272.761 126.796C272.815 126.749 272.867 126.697 272.915 126.643C274.601 120.874 279.613 108.269 287.679 100.202C292.969 94.9126 299.365 91.6572 306.49 91.1573ZM218.994 312.351L224.39 298.86L224.564 298.6C225.229 297.603 226.4 296.069 228.018 295.065C228.861 294.541 229.935 294.093 231.191 294.037C232.489 293.978 233.757 294.349 234.91 295.117C236.229 295.997 237.127 296.675 237.742 297.169C238.048 297.415 238.275 297.609 238.429 297.739C238.475 297.779 238.506 297.806 238.53 297.825L262.192 313.6C264.784 315.001 269.086 316.44 273.496 316.244C277.815 316.052 282.229 314.315 285.514 309.239C293.293 297.216 304.076 280.659 308.495 273.883L308.563 273.779L308.64 273.68C308.946 273.287 309.289 272.678 309.513 272.029C309.659 271.607 309.715 271.285 309.73 271.07C309.361 271.03 308.616 271.038 307.317 271.363C303.016 272.438 297.638 271.781 292.467 270.039C287.231 268.276 281.854 265.285 277.481 261.275C273.109 257.265 269.611 252.11 268.454 246.024C267.284 239.869 268.576 233.123 273.154 226.156C278.044 218.716 284.134 214.734 290.636 213.278C297.05 211.843 303.559 212.932 309.297 215.048C315.044 217.167 320.207 220.383 324.06 223.476C325.99 225.025 327.635 226.578 328.885 227.995C329.899 229.146 330.876 230.453 331.382 231.742C331.564 231.598 331.764 231.422 331.976 231.214C332.466 230.733 332.914 230.183 333.243 229.692L350.843 202.411C352.247 199.821 353.694 195.509 353.497 191.088C353.306 186.769 351.569 182.355 346.492 179.07C334.566 171.354 321.627 164.152 316.674 161.53L316.603 161.492L316.534 161.451C315.428 160.787 313.798 159.38 313.281 157.209C312.672 154.652 313.845 152.237 316.203 150.35C316.789 149.881 317.765 148.817 319.055 147.167C320.297 145.577 321.693 143.625 323.11 141.547C325.865 137.507 328.628 133.096 330.383 130.182C331.554 126.948 332.664 121.739 332.252 116.522C331.832 111.208 329.883 106.238 325.214 103.029C318.577 98.4656 312.39 96.758 306.91 97.1425C301.443 97.5262 296.352 100.015 291.921 104.445C284.679 111.687 279.968 123.655 278.552 128.753L278.443 129.145L278.234 129.494C277.57 130.599 276.164 132.229 273.992 132.746C271.435 133.355 269.02 132.183 267.133 129.824C267.008 129.668 266.642 129.305 265.897 128.728C265.193 128.182 264.281 127.544 263.189 126.829C261.007 125.402 258.231 123.754 255.23 122.056C249.233 118.664 242.477 115.154 238.09 112.96L238.054 112.942L238.019 112.924C234.31 110.945 225.343 109.124 218.815 117.432C211.231 127.085 202.915 142.3 199.699 148.732L199.578 148.974L199.415 149.191C198.728 150.107 197.374 151.41 195.465 151.825C194.437 152.048 193.285 151.998 192.137 151.509C191.014 151.032 190.08 150.213 189.313 149.191C189.066 148.861 188.224 148.074 186.648 146.868C185.173 145.739 183.308 144.43 181.293 143.077C177.313 140.405 172.865 137.638 169.947 135.886C167.555 134.706 163.501 133.275 159.214 132.858C154.839 132.433 150.688 133.099 147.663 135.574C142.809 139.545 140.043 142.166 138.221 144.948C136.45 147.65 135.437 150.716 134.583 155.837C133.861 160.171 135.28 164.077 137.186 167.288C138.134 168.884 139.169 170.252 140.059 171.367C140.238 171.592 140.464 171.871 140.68 172.138C140.905 172.416 141.12 172.681 141.261 172.859C141.467 173.12 141.759 173.489 142.008 173.883C142.08 173.942 142.181 174.019 142.316 174.118C142.772 174.452 143.446 174.902 144.32 175.453C146.057 176.548 148.421 177.942 151.053 179.449C156.194 182.392 162.244 185.698 166.351 187.901C167.374 188.238 168.679 188.957 169.563 190.297C170.736 192.075 170.742 194.274 169.654 196.45C168.87 198.018 165.824 203.034 162.477 208.459C159.089 213.947 155.258 220.069 152.75 224.052C151.273 226.617 149.528 230.756 149.027 234.78C148.52 238.854 149.34 242.039 151.946 243.935C159.552 249.467 177.692 260.719 186.04 265.791C187.37 266.404 189.443 267.764 190.149 270.139C191.012 273.046 189.433 275.64 186.81 277.65L173.87 295.766C170.588 300.867 166.911 314.025 179.582 325.428C185.667 330.905 192.837 331.188 199.077 329.729C205.418 328.248 210.295 325.062 210.993 324.476C212.945 322.838 214.938 319.922 216.524 317.155C217.291 315.817 217.919 314.595 218.354 313.707C218.571 313.265 218.739 312.908 218.851 312.666C218.907 312.545 218.949 312.452 218.976 312.392L218.994 312.351ZM141.849 173.744C141.85 173.744 141.866 173.759 141.892 173.786C141.86 173.758 141.847 173.744 141.849 173.744ZM330.598 232.221C330.598 232.22 330.605 232.218 330.619 232.215C330.604 232.22 330.598 232.221 330.598 232.221ZM331.695 232.634C331.701 232.643 331.704 232.649 331.704 232.649C331.704 232.65 331.701 232.645 331.695 232.634ZM238.571 297.86C238.588 297.873 238.59 297.875 238.572 297.861C238.572 297.861 238.572 297.86 238.571 297.86ZM231.422 300.027C231.42 300.026 231.424 300.026 231.434 300.03C231.427 300.029 231.423 300.028 231.422 300.027Z" fill="#1D60B9"/>
</g>
<defs>
<filter id="filter0_d_283_57" x="48.3267" y="34" width="374.673" height="374.673" filterUnits="userSpaceOnUse" color-interpolation-filters="sRGB">
<feFlood flood-opacity="0" result="BackgroundImageFix"/>
<feColorMatrix in="SourceAlpha" type="matrix" values="0 0 0 0 0 0 0 0 0 0 0 0 0 0 0 0 0 0 127 0" result="hardAlpha"/>
<feOffset dx="-17.6733" dy="17.6733"/>
<feComposite in2="hardAlpha" operator="out"/>
<feColorMatrix type="matrix" values="0 0 0 0 0.171681 0 0 0 0 0.226566 0 0 0 0 0.35829 0 0 0 1 0"/>
<feBlend mode="normal" in2="BackgroundImageFix" result="effect1_dropShadow_283_57"/>
<feBlend mode="normal" in="SourceGraphic" in2="effect1_dropShadow_283_57" result="shape"/>
</filter>
<filter id="filter1_d_283_57" x="21.817" y="7.49023" width="427.693" height="427.693" filterUnits="userSpaceOnUse" color-interpolation-filters="sRGB">
<feFlood flood-opacity="0" result="BackgroundImageFix"/>
<feColorMatrix in="SourceAlpha" type="matrix" values="0 0 0 0 0 0 0 0 0 0 0 0 0 0 0 0 0 0 127 0" result="hardAlpha"/>
<feOffset dx="-17.6733" dy="17.6733"/>
<feComposite in2="hardAlpha" operator="out"/>
<feColorMatrix type="matrix" values="0 0 0 0 0.171681 0 0 0 0 0.226566 0 0 0 0 0.35829 0 0 0 1 0"/>
<feBlend mode="normal" in2="BackgroundImageFix" result="effect1_dropShadow_283_57"/>
<feBlend mode="normal" in="SourceGraphic" in2="effect1_dropShadow_283_57" result="shape"/>
</filter>
<filter id="filter2_d_283_57" x="58.9307" y="34" width="371.139" height="371.139" filterUnits="userSpaceOnUse" color-interpolation-filters="sRGB">
<feFlood flood-opacity="0" result="BackgroundImageFix"/>
<feColorMatrix in="SourceAlpha" type="matrix" values="0 0 0 0 0 0 0 0 0 0 0 0 0 0 0 0 0 0 127 0" result="hardAlpha"/>
<feOffset dy="7.06931"/>
<feGaussianBlur stdDeviation="3.53465"/>
<feComposite in2="hardAlpha" operator="out"/>
<feColorMatrix type="matrix" values="0 0 0 0 0 0 0 0 0 0 0 0 0 0 0 0 0 0 0.25 0"/>
<feBlend mode="normal" in2="BackgroundImageFix" result="effect1_dropShadow_283_57"/>
<feBlend mode="normal" in="SourceGraphic" in2="effect1_dropShadow_283_57" result="shape"/>
</filter>
<filter id="filter3_d_283_57" x="41.2574" y="16.3262" width="406.485" height="406.484" filterUnits="userSpaceOnUse" color-interpolation-filters="sRGB">
<feFlood flood-opacity="0" result="BackgroundImageFix"/>
<feColorMatrix in="SourceAlpha" type="matrix" values="0 0 0 0 0 0 0 0 0 0 0 0 0 0 0 0 0 0 127 0" result="hardAlpha"/>
<feOffset dy="7.06931"/>
<feGaussianBlur stdDeviation="3.53465"/>
<feComposite in2="hardAlpha" operator="out"/>
<feColorMatrix type="matrix" values="0 0 0 0 0 0 0 0 0 0 0 0 0 0 0 0 0 0 0.25 0"/>
<feBlend mode="normal" in2="BackgroundImageFix" result="effect1_dropShadow_283_57"/>
<feBlend mode="normal" in="SourceGraphic" in2="effect1_dropShadow_283_57" result="shape"/>
</filter>
<filter id="filter4_i_283_57" x="66" y="34" width="357" height="357" filterUnits="userSpaceOnUse" color-interpolation-filters="sRGB">
<feFlood flood-opacity="0" result="BackgroundImageFix"/>
<feBlend mode="normal" in="SourceGraphic" in2="BackgroundImageFix" result="shape"/>
<feColorMatrix in="SourceAlpha" type="matrix" values="0 0 0 0 0 0 0 0 0 0 0 0 0 0 0 0 0 0 127 0" result="hardAlpha"/>
<feOffset dx="-8.83663" dy="8.83663"/>
<feComposite in2="hardAlpha" operator="arithmetic" k2="-1" k3="1"/>
<feColorMatrix type="matrix" values="0 0 0 0 0.171681 0 0 0 0 0.226566 0 0 0 0 0.35829 0 0 0 1 0"/>
<feBlend mode="normal" in2="shape" result="effect1_innerShadow_283_57"/>
</filter>
<filter id="filter5_di_283_57" x="120.787" y="94.0898" width="235.728" height="249.993" filterUnits="userSpaceOnUse" color-interpolation-filters="sRGB">
<feFlood flood-opacity="0" result="BackgroundImageFix"/>
<feColorMatrix in="SourceAlpha" type="matrix" values="0 0 0 0 0 0 0 0 0 0 0 0 0 0 0 0 0 0 127 0" result="hardAlpha"/>
<feOffset dx="-10.604" dy="10.604"/>
<feComposite in2="hardAlpha" operator="out"/>
<feColorMatrix type="matrix" values="0 0 0 0 0.171681 0 0 0 0 0.226566 0 0 0 0 0.35829 0 0 0 1 0"/>
<feBlend mode="normal" in2="BackgroundImageFix" result="effect1_dropShadow_283_57"/>
<feBlend mode="normal" in="SourceGraphic" in2="effect1_dropShadow_283_57" result="shape"/>
<feColorMatrix in="SourceAlpha" type="matrix" values="0 0 0 0 0 0 0 0 0 0 0 0 0 0 0 0 0 0 127 0" result="hardAlpha"/>
<feOffset dy="7.06931"/>
<feGaussianBlur stdDeviation="3.53465"/>
<feComposite in2="hardAlpha" operator="arithmetic" k2="-1" k3="1"/>
<feColorMatrix type="matrix" values="0 0 0 0 0 0 0 0 0 0 0 0 0 0 0 0 0 0 0.25 0"/>
<feBlend mode="normal" in2="shape" result="effect2_innerShadow_283_57"/>
</filter>
<filter id="filter6_i_283_57" x="128.391" y="91.0898" width="231.125" height="252.456" filterUnits="userSpaceOnUse" color-interpolation-filters="sRGB">
<feFlood flood-opacity="0" result="BackgroundImageFix"/>
<feBlend mode="normal" in="SourceGraphic" in2="BackgroundImageFix" result="shape"/>
<feColorMatrix in="SourceAlpha" type="matrix" values="0 0 0 0 0 0 0 0 0 0 0 0 0 0 0 0 0 0 127 0" result="hardAlpha"/>
<feOffset dy="7.06931"/>
<feGaussianBlur stdDeviation="3.53465"/>
<feComposite in2="hardAlpha" operator="arithmetic" k2="-1" k3="1"/>
<feColorMatrix type="matrix" values="0 0 0 0 0 0 0 0 0 0 0 0 0 0 0 0 0 0 0.25 0"/>
<feBlend mode="normal" in2="shape" result="effect1_innerShadow_283_57"/>
</filter>
</defs>
</svg>
