<svg width="433" height="429" viewBox="0 0 433 429" fill="none" xmlns="http://www.w3.org/2000/svg">
<g filter="url(#filter0_d_283_30)">
<g filter="url(#filter1_d_283_30)">
<rect x="45" y="27" width="357" height="357" rx="176.733" fill="#F6F1E3"/>
<rect x="31.745" y="13.745" width="383.51" height="383.51" rx="189.988" stroke="#8E9BC7" stroke-width="26.5099"/>
</g>
<g filter="url(#filter2_d_283_30)">
<rect x="45" y="27" width="357" height="357" rx="176.733" fill="#F6F1E3"/>
<rect x="36.1634" y="18.1634" width="374.673" height="374.673" rx="185.569" stroke="#1D60B9" stroke-width="17.6733"/>
</g>
<g filter="url(#filter3_i_283_30)">
<rect x="45" y="27" width="357" height="357" rx="176.733" fill="#F6F1E3"/>
</g>
<g filter="url(#filter4_d_283_30)">
<g filter="url(#filter5_i_283_30)">
<path d="M80.525 251.624C77.0629 232.582 124.647 226.814 156.37 226.814L289.219 228.436C332.697 226.987 366.03 241.359 366.03 250.175C366.03 254.523 364.087 261.344 344.292 267.566C293.567 283.508 135.597 277.711 110.96 269.015C107.673 267.855 82.106 260.32 80.525 251.624Z" fill="#8E9BC7"/>
</g>
<path d="M80.525 251.624C77.0629 232.582 124.647 226.814 156.37 226.814L289.219 228.436C332.697 226.987 366.03 241.359 366.03 250.175C366.03 254.523 364.087 261.344 344.292 267.566C293.567 283.508 135.597 277.711 110.96 269.015C107.673 267.855 82.106 260.32 80.525 251.624Z" stroke="#1D60B9" stroke-width="7.69025" stroke-linejoin="round"/>
<path d="M80.608 251.624C77.1459 232.582 124.73 226.814 156.453 226.814L289.302 228.436C332.78 226.987 366.113 241.359 366.113 250.175C366.113 254.523 364.17 261.344 344.375 267.566C293.65 283.508 135.68 277.711 111.043 269.015C107.756 267.855 82.189 260.32 80.608 251.624Z" stroke="#1D60B9" stroke-width="7.69025" stroke-linejoin="round"/>
<g filter="url(#filter6_i_283_30)">
<path d="M164.145 118.077L156.206 245.71C156.013 248.818 157.732 251.698 160.686 252.682C169.064 255.472 188.777 260.457 222.698 260.457C256.662 260.457 276.985 255.46 285.681 252.671C288.728 251.694 290.518 248.732 290.291 245.54L281.044 115.471C280.753 111.371 277.29 108.225 273.181 108.328L171.628 110.867C167.641 110.967 164.392 114.097 164.145 118.077Z" fill="#8E9BC7"/>
</g>
<path d="M164.145 118.077L156.206 245.71C156.013 248.818 157.732 251.698 160.686 252.682C169.064 255.472 188.777 260.457 222.698 260.457C256.662 260.457 276.985 255.46 285.681 252.671C288.728 251.694 290.518 248.732 290.291 245.54L281.044 115.471C280.753 111.371 277.29 108.225 273.181 108.328L171.628 110.867C167.641 110.967 164.392 114.097 164.145 118.077Z" stroke="#1D60B9" stroke-width="7.69025" stroke-linejoin="round"/>
<g filter="url(#filter7_i_283_30)">
<path d="M280.523 111.045C268.521 88.745 188.985 88.6136 165.696 110.162C163.948 111.78 163.361 114.408 165.017 116.119C181.315 132.962 289.005 126.805 280.523 111.045Z" fill="#8E9BC7"/>
</g>
<path d="M280.523 111.045C268.521 88.745 188.985 88.6136 165.696 110.162C163.948 111.78 163.361 114.408 165.017 116.119C181.315 132.962 289.005 126.805 280.523 111.045Z" stroke="#1D60B9" stroke-width="7.69025" stroke-linejoin="round"/>
<path d="M220.088 299.225C219.395 299.319 218.766 299.394 218.205 299.45C217.445 299.526 216.564 299.524 215.576 299.45C214.617 299.379 213.557 299.24 212.408 299.041C209.831 298.595 206.811 297.846 203.492 296.872C194.375 295.033 184.61 294.315 186.322 299.45C187.759 303.763 193.833 304.678 199.59 304.245C204.834 301.635 210.959 299.837 210.959 300.899C210.959 301.973 205.438 303.805 199.59 304.245C193.833 304.678 187.759 303.763 186.322 299.45C184.61 294.315 194.375 295.033 203.492 296.872C206.726 297.525 209.878 298.318 212.408 299.041C213.557 299.24 214.617 299.379 215.576 299.45C216.943 299.344 218.463 299.265 220.088 299.225Z" fill="#8E9BC7"/>
<path d="M148.641 274.812C164.624 282.384 196.721 296.327 212.408 299.041M303.712 274.812C293.567 283.508 232.698 298.001 218.205 299.45C217.445 299.526 216.564 299.524 215.576 299.45M212.408 299.041C202.747 296.279 184.003 292.494 186.322 299.45C189.22 308.146 210.959 303.03 210.959 300.899C210.959 298.768 186.322 308.146 193.568 312.493C200.814 316.841 215.307 308.146 213.858 302.349C212.408 296.551 228.35 303.798 228.35 316.841M212.408 299.041C213.557 299.24 214.617 299.379 215.576 299.45M215.576 299.45C228.047 298.484 253.278 299.74 254.437 312.493" stroke="#1D60B9" stroke-width="7.69025" stroke-linecap="round" stroke-linejoin="round"/>
<path d="M280.523 111.045C268.521 88.745 188.985 88.6136 165.696 110.162C163.948 111.78 163.361 114.408 165.017 116.119C181.315 132.962 289.005 126.805 280.523 111.045Z" stroke="#1D60B9" stroke-width="7.69025" stroke-linejoin="round"/>
</g>
<path d="M163.887 114.24L155.729 245.181C155.535 248.289 157.255 251.17 160.209 252.154C168.586 254.944 188.3 259.929 222.22 259.929C256.237 259.929 276.572 254.915 285.244 252.13C288.271 251.157 290.057 248.223 289.855 245.05L281.436 113.017C281.37 111.99 281.104 110.991 280.464 110.185C277.29 106.186 264.214 94.1582 221.737 94.1582C188.753 94.1582 171.684 105.176 166.133 109.628C164.73 110.753 163.999 112.444 163.887 114.24Z" stroke="#1D60B9" stroke-width="7.69025" stroke-linejoin="round"/>
<path d="M280.49 111.045C268.487 88.745 188.951 88.6136 165.663 110.162C163.914 111.78 163.327 114.408 164.983 116.119C181.282 132.962 288.972 126.805 280.49 111.045Z" stroke="#1D60B9" stroke-width="7.69025" stroke-linejoin="round"/>
</g>
<defs>
<filter id="filter0_d_283_30" x="14.4902" y="0.490234" width="418.02" height="418.02" filterUnits="userSpaceOnUse" color-interpolation-filters="sRGB">
<feFlood flood-opacity="0" result="BackgroundImageFix"/>
<feColorMatrix in="SourceAlpha" type="matrix" values="0 0 0 0 0 0 0 0 0 0 0 0 0 0 0 0 0 0 127 0" result="hardAlpha"/>
<feOffset dy="4"/>
<feGaussianBlur stdDeviation="2"/>
<feComposite in2="hardAlpha" operator="out"/>
<feColorMatrix type="matrix" values="0 0 0 0 0 0 0 0 0 0 0 0 0 0 0 0 0 0 0.25 0"/>
<feBlend mode="normal" in2="BackgroundImageFix" result="effect1_dropShadow_283_30"/>
<feBlend mode="normal" in="SourceGraphic" in2="effect1_dropShadow_283_30" result="shape"/>
</filter>
<filter id="filter1_d_283_30" x="0.816967" y="0.490234" width="427.693" height="427.693" filterUnits="userSpaceOnUse" color-interpolation-filters="sRGB">
<feFlood flood-opacity="0" result="BackgroundImageFix"/>
<feColorMatrix in="SourceAlpha" type="matrix" values="0 0 0 0 0 0 0 0 0 0 0 0 0 0 0 0 0 0 127 0" result="hardAlpha"/>
<feOffset dx="-17.6733" dy="17.6733"/>
<feComposite in2="hardAlpha" operator="out"/>
<feColorMatrix type="matrix" values="0 0 0 0 0.171681 0 0 0 0 0.226566 0 0 0 0 0.35829 0 0 0 1 0"/>
<feBlend mode="normal" in2="BackgroundImageFix" result="effect1_dropShadow_283_30"/>
<feBlend mode="normal" in="SourceGraphic" in2="effect1_dropShadow_283_30" result="shape"/>
</filter>
<filter id="filter2_d_283_30" x="20.2574" y="9.32617" width="406.485" height="406.486" filterUnits="userSpaceOnUse" color-interpolation-filters="sRGB">
<feFlood flood-opacity="0" result="BackgroundImageFix"/>
<feColorMatrix in="SourceAlpha" type="matrix" values="0 0 0 0 0 0 0 0 0 0 0 0 0 0 0 0 0 0 127 0" result="hardAlpha"/>
<feOffset dy="7.06931"/>
<feGaussianBlur stdDeviation="3.53465"/>
<feComposite in2="hardAlpha" operator="out"/>
<feColorMatrix type="matrix" values="0 0 0 0 0 0 0 0 0 0 0 0 0 0 0 0 0 0 0.25 0"/>
<feBlend mode="normal" in2="BackgroundImageFix" result="effect1_dropShadow_283_30"/>
<feBlend mode="normal" in="SourceGraphic" in2="effect1_dropShadow_283_30" result="shape"/>
</filter>
<filter id="filter3_i_283_30" x="45" y="27" width="357" height="357" filterUnits="userSpaceOnUse" color-interpolation-filters="sRGB">
<feFlood flood-opacity="0" result="BackgroundImageFix"/>
<feBlend mode="normal" in="SourceGraphic" in2="BackgroundImageFix" result="shape"/>
<feColorMatrix in="SourceAlpha" type="matrix" values="0 0 0 0 0 0 0 0 0 0 0 0 0 0 0 0 0 0 127 0" result="hardAlpha"/>
<feOffset dx="-8.83663" dy="8.83663"/>
<feComposite in2="hardAlpha" operator="arithmetic" k2="-1" k3="1"/>
<feColorMatrix type="matrix" values="0 0 0 0 0.171681 0 0 0 0 0.226566 0 0 0 0 0.35829 0 0 0 1 0"/>
<feBlend mode="normal" in2="shape" result="effect1_innerShadow_283_30"/>
</filter>
<filter id="filter4_d_283_30" x="64.9617" y="90.3125" width="304.997" height="241.908" filterUnits="userSpaceOnUse" color-interpolation-filters="sRGB">
<feFlood flood-opacity="0" result="BackgroundImageFix"/>
<feColorMatrix in="SourceAlpha" type="matrix" values="0 0 0 0 0 0 0 0 0 0 0 0 0 0 0 0 0 0 127 0" result="hardAlpha"/>
<feOffset dx="-11.5354" dy="11.5354"/>
<feComposite in2="hardAlpha" operator="out"/>
<feColorMatrix type="matrix" values="0 0 0 0 0.171681 0 0 0 0 0.226566 0 0 0 0 0.35829 0 0 0 1 0"/>
<feBlend mode="normal" in2="BackgroundImageFix" result="effect1_dropShadow_283_30"/>
<feBlend mode="normal" in="SourceGraphic" in2="effect1_dropShadow_283_30" result="shape"/>
</filter>
<filter id="filter5_i_283_30" x="70.7294" y="222.969" width="299.146" height="64.2442" filterUnits="userSpaceOnUse" color-interpolation-filters="sRGB">
<feFlood flood-opacity="0" result="BackgroundImageFix"/>
<feBlend mode="normal" in="SourceGraphic" in2="BackgroundImageFix" result="shape"/>
<feColorMatrix in="SourceAlpha" type="matrix" values="0 0 0 0 0 0 0 0 0 0 0 0 0 0 0 0 0 0 127 0" result="hardAlpha"/>
<feOffset dx="-5.76769" dy="5.76769"/>
<feGaussianBlur stdDeviation="3.84512"/>
<feComposite in2="hardAlpha" operator="arithmetic" k2="-1" k3="1"/>
<feColorMatrix type="matrix" values="0 0 0 0 0 0 0 0 0 0 0 0 0 0 0 0 0 0 0.25 0"/>
<feBlend mode="normal" in2="shape" result="effect1_innerShadow_283_30"/>
</filter>
<filter id="filter6_i_283_30" x="146.579" y="104.48" width="147.576" height="165.59" filterUnits="userSpaceOnUse" color-interpolation-filters="sRGB">
<feFlood flood-opacity="0" result="BackgroundImageFix"/>
<feBlend mode="normal" in="SourceGraphic" in2="BackgroundImageFix" result="shape"/>
<feColorMatrix in="SourceAlpha" type="matrix" values="0 0 0 0 0 0 0 0 0 0 0 0 0 0 0 0 0 0 127 0" result="hardAlpha"/>
<feOffset dx="-5.76769" dy="5.76769"/>
<feGaussianBlur stdDeviation="3.84512"/>
<feComposite in2="hardAlpha" operator="arithmetic" k2="-1" k3="1"/>
<feColorMatrix type="matrix" values="0 0 0 0 0 0 0 0 0 0 0 0 0 0 0 0 0 0 0.25 0"/>
<feBlend mode="normal" in2="shape" result="effect1_innerShadow_283_30"/>
</filter>
<filter id="filter7_i_283_30" x="154.404" y="90.3125" width="130.44" height="45.463" filterUnits="userSpaceOnUse" color-interpolation-filters="sRGB">
<feFlood flood-opacity="0" result="BackgroundImageFix"/>
<feBlend mode="normal" in="SourceGraphic" in2="BackgroundImageFix" result="shape"/>
<feColorMatrix in="SourceAlpha" type="matrix" values="0 0 0 0 0 0 0 0 0 0 0 0 0 0 0 0 0 0 127 0" result="hardAlpha"/>
<feOffset dx="-5.76769" dy="5.76769"/>
<feGaussianBlur stdDeviation="3.84512"/>
<feComposite in2="hardAlpha" operator="arithmetic" k2="-1" k3="1"/>
<feColorMatrix type="matrix" values="0 0 0 0 0 0 0 0 0 0 0 0 0 0 0 0 0 0 0.25 0"/>
<feBlend mode="normal" in2="shape" result="effect1_innerShadow_283_30"/>
</filter>
</defs>
</svg>
