<svg width="439" height="437" viewBox="0 0 439 437" fill="none" xmlns="http://www.w3.org/2000/svg">
<g filter="url(#filter0_dd_283_31)">
<rect x="50" y="30" width="357" height="357" rx="178.5" fill="#F6F1E3"/>
<rect x="35.125" y="15.125" width="386.75" height="386.75" rx="193.375" stroke="#8E9BC7" stroke-width="29.75"/>
</g>
<g filter="url(#filter1_d_283_31)">
<rect x="50" y="30" width="357" height="357" rx="178.5" fill="#F6F1E3"/>
<rect x="40.0833" y="20.0833" width="376.833" height="376.833" rx="188.417" stroke="#1D60B9" stroke-width="19.8333"/>
</g>
<g filter="url(#filter2_i_283_31)">
<rect x="50" y="30" width="357" height="357" rx="178.5" fill="#F6F1E3"/>
</g>
<g filter="url(#filter3_di_283_31)">
<path d="M175.884 331.697L127.893 294.041C124.927 291.714 124.306 287.469 126.511 284.411C133.096 275.273 142.238 262.933 144.75 260.839C147.822 258.278 147.629 255.184 147.149 253.958C143.066 240.278 151.777 202.915 152.575 194.114C153.373 185.314 151.442 138.112 154.08 128.591C156.19 120.974 164.345 119.762 168.158 120.108C182.816 122.856 184.601 168.733 187.13 165.305C191.386 159.534 245.93 86.344 250.473 83.2068C256.152 79.2853 263.769 77.7954 269.194 82.2424C274.169 86.3211 273.145 94.645 271.417 99.3916C271.229 99.9093 270.955 100.388 270.631 100.834L226.491 161.775C223.365 166.252 227.331 167.952 230.271 165.202C230.534 164.956 230.743 164.675 230.941 164.373C244.446 143.833 272.954 102.053 281.277 95.7601C289.28 89.7092 296.464 93.288 299.443 96.1535C299.715 96.4151 299.992 96.6705 300.279 96.9161C305.897 101.73 304.875 109.599 302.884 114.661C302.68 115.181 302.402 115.648 302.064 116.093C286.783 136.221 256.775 175.168 256.255 176.009C255.215 177.689 249.898 182.217 252.817 184.57C255.297 186.57 256.95 184.649 257.297 184.089C267.747 169.953 289.64 140.528 293.607 135.919C298.566 130.157 305.125 126.316 314.247 133.354C321.545 138.984 318.464 148.82 316.012 153.034L280.741 199.524C279.408 201.178 277.255 204.709 279.303 205.605C281.351 206.5 283.196 205.071 283.863 204.244L299.058 183.44C308.335 169.197 318.417 172.181 322.897 174.954C331.41 180.22 328.354 191.708 324.423 197.274L279.303 262.008C267.548 284.012 252.429 294.176 243.87 300.498C237.764 305.009 218.253 306.633 207.805 306.99C205.674 307.062 203.673 308.036 202.346 309.704L185.781 330.536C183.362 333.577 178.941 334.096 175.884 331.697Z" fill="#FFC959"/>
<path d="M224.155 169.146C227.071 171.075 230.62 169.715 232.685 167.784C233.245 167.26 233.633 166.714 233.895 166.315L230.941 164.373L233.895 166.315C240.631 156.07 251.107 140.53 260.929 126.778C265.842 119.9 270.569 113.498 274.572 108.441C278.679 103.25 281.75 99.8336 283.409 98.5795C286.661 96.1208 289.494 95.76 291.697 96.1052C294.028 96.4706 295.93 97.6788 296.992 98.7009L299.443 96.1535L296.992 98.7009C297.301 98.9976 297.629 99.3006 297.979 99.6002C299.899 101.246 300.753 103.429 300.907 105.914C301.065 108.464 300.458 111.172 299.595 113.367C299.529 113.534 299.427 113.721 299.249 113.956C291.615 124.012 280.298 138.773 270.819 151.133L269.231 153.204C265.129 158.553 261.449 163.351 258.676 166.975C257.113 169.018 255.836 170.69 254.932 171.88C254.48 172.474 254.118 172.953 253.859 173.299L253.828 173.341C253.644 173.586 253.381 173.936 253.249 174.149C253.25 174.148 253.249 174.149 253.247 174.152C253.233 174.171 253.158 174.277 252.965 174.51C252.802 174.707 252.62 174.919 252.397 175.178C252.331 175.255 252.261 175.336 252.187 175.422C251.59 176.117 250.792 177.058 250.114 178.072C249.474 179.028 248.686 180.414 248.473 182.009C248.221 183.897 248.819 185.887 250.599 187.322C252.71 189.024 255.065 189.396 257.146 188.581C258.744 187.955 259.738 186.799 260.201 186.106C270.742 171.849 292.438 142.695 296.286 138.225C298.585 135.554 300.856 133.824 303.176 133.277C305.283 132.781 308.135 133.103 312.088 136.152C314.587 138.081 315.383 140.69 315.255 143.568C315.126 146.461 314.042 149.325 313.057 151.08L277.955 197.349C277.173 198.327 276.069 199.937 275.443 201.611C275.137 202.43 274.794 203.654 274.973 204.983C275.19 206.585 276.151 208.085 277.887 208.844C280.014 209.774 282.034 209.455 283.513 208.811C284.912 208.201 285.979 207.25 286.615 206.462C286.65 206.418 286.684 206.374 286.717 206.329L301.913 185.524C301.95 185.473 301.986 185.421 302.02 185.369C306.263 178.855 310.323 176.795 313.342 176.305C316.478 175.796 319.256 176.857 321.038 177.959C323.913 179.739 324.946 182.514 324.795 185.842C324.639 189.304 323.166 192.926 321.536 195.235L321.523 195.253L276.403 259.987C276.323 260.101 276.251 260.22 276.185 260.343C265.553 280.243 252.139 290.062 243.446 296.425C242.866 296.85 242.306 297.259 241.77 297.655C240.776 298.389 238.921 299.199 236.182 299.959C233.525 300.698 230.346 301.309 226.955 301.804C220.177 302.794 212.825 303.282 207.684 303.457C204.558 303.564 201.574 304.996 199.579 307.504L183.014 328.336C181.805 329.857 179.595 330.116 178.066 328.916L130.075 291.26L127.893 294.041L130.075 291.26C128.586 290.092 128.293 287.983 129.378 286.477L126.511 284.411L129.378 286.477C132.662 281.921 136.573 276.58 139.969 272.127C141.668 269.898 143.222 267.913 144.495 266.368C145.843 264.731 146.682 263.83 147.014 263.553C151.299 259.981 151.4 255.347 150.506 252.844C149.688 250.02 149.444 245.66 149.693 240.235C149.94 234.839 150.653 228.741 151.529 222.715C152.397 216.751 153.414 210.929 154.275 205.997L154.298 205.862L154.317 205.753C155.159 200.933 155.881 196.801 156.095 194.433C156.314 192.026 156.338 187.227 156.311 181.486C156.298 178.843 156.274 176.009 156.25 173.048C156.219 169.389 156.187 165.536 156.172 161.609C156.146 154.573 156.177 147.561 156.377 141.729C156.582 135.736 156.959 131.438 157.486 129.535C158.197 126.969 159.865 125.488 161.893 124.603C163.941 123.71 166.212 123.513 167.658 123.613C169.52 124.043 171.649 126.019 173.776 130.365C175.86 134.624 177.465 140.188 178.746 145.808C179.658 149.808 180.369 153.66 180.984 156.986C181.233 158.336 181.466 159.599 181.69 160.751C182.059 162.643 182.435 164.405 182.846 165.606C182.955 165.925 183.093 166.281 183.267 166.629C183.419 166.932 183.714 167.466 184.221 167.95C184.761 168.465 185.917 169.244 187.504 168.966C188.901 168.722 189.681 167.801 189.974 167.403C192.092 164.532 206.782 144.805 221.509 125.406C228.873 115.705 236.235 106.101 242.035 98.7328C244.937 95.0458 247.432 91.939 249.333 89.6663C250.285 88.5275 251.068 87.6233 251.666 86.9697C252.109 86.4862 252.359 86.2443 252.456 86.1501C252.511 86.0966 252.517 86.0908 252.481 86.1154C257.571 82.6013 263.303 81.9838 266.953 84.9758C268.37 86.1381 269.164 88.0888 269.288 90.733C269.412 93.3576 268.834 96.1541 268.096 98.1825C268.045 98.3236 267.948 98.5135 267.769 98.7608L223.628 159.702C223.616 159.719 223.604 159.735 223.592 159.752C222.589 161.189 221.865 162.8 221.816 164.483C221.762 166.312 222.541 168.078 224.155 169.146Z" stroke="#1D60B9" stroke-width="7.06931" stroke-linejoin="round"/>
</g>
<defs>
<filter id="filter0_dd_283_31" x="0.416668" y="0.25" width="444.267" height="436.333" filterUnits="userSpaceOnUse" color-interpolation-filters="sRGB">
<feFlood flood-opacity="0" result="BackgroundImageFix"/>
<feColorMatrix in="SourceAlpha" type="matrix" values="0 0 0 0 0 0 0 0 0 0 0 0 0 0 0 0 0 0 127 0" result="hardAlpha"/>
<feOffset dy="7.93333"/>
<feGaussianBlur stdDeviation="3.96667"/>
<feComposite in2="hardAlpha" operator="out"/>
<feColorMatrix type="matrix" values="0 0 0 0 0 0 0 0 0 0 0 0 0 0 0 0 0 0 0.25 0"/>
<feBlend mode="normal" in2="BackgroundImageFix" result="effect1_dropShadow_283_31"/>
<feColorMatrix in="SourceAlpha" type="matrix" values="0 0 0 0 0 0 0 0 0 0 0 0 0 0 0 0 0 0 127 0" result="hardAlpha"/>
<feOffset dx="-19.8333" dy="19.8333"/>
<feComposite in2="hardAlpha" operator="out"/>
<feColorMatrix type="matrix" values="0 0 0 0 0.171681 0 0 0 0 0.226566 0 0 0 0 0.35829 0 0 0 1 0"/>
<feBlend mode="normal" in2="effect1_dropShadow_283_31" result="effect2_dropShadow_283_31"/>
<feBlend mode="normal" in="SourceGraphic" in2="effect2_dropShadow_283_31" result="shape"/>
</filter>
<filter id="filter1_d_283_31" x="22.2334" y="10.166" width="412.533" height="412.535" filterUnits="userSpaceOnUse" color-interpolation-filters="sRGB">
<feFlood flood-opacity="0" result="BackgroundImageFix"/>
<feColorMatrix in="SourceAlpha" type="matrix" values="0 0 0 0 0 0 0 0 0 0 0 0 0 0 0 0 0 0 127 0" result="hardAlpha"/>
<feOffset dy="7.93333"/>
<feGaussianBlur stdDeviation="3.96667"/>
<feComposite in2="hardAlpha" operator="out"/>
<feColorMatrix type="matrix" values="0 0 0 0 0 0 0 0 0 0 0 0 0 0 0 0 0 0 0.25 0"/>
<feBlend mode="normal" in2="BackgroundImageFix" result="effect1_dropShadow_283_31"/>
<feBlend mode="normal" in="SourceGraphic" in2="effect1_dropShadow_283_31" result="shape"/>
</filter>
<filter id="filter2_i_283_31" x="50" y="30" width="357" height="357" filterUnits="userSpaceOnUse" color-interpolation-filters="sRGB">
<feFlood flood-opacity="0" result="BackgroundImageFix"/>
<feBlend mode="normal" in="SourceGraphic" in2="BackgroundImageFix" result="shape"/>
<feColorMatrix in="SourceAlpha" type="matrix" values="0 0 0 0 0 0 0 0 0 0 0 0 0 0 0 0 0 0 127 0" result="hardAlpha"/>
<feOffset dx="-9.91667" dy="9.91667"/>
<feComposite in2="hardAlpha" operator="arithmetic" k2="-1" k3="1"/>
<feColorMatrix type="matrix" values="0 0 0 0 0.171681 0 0 0 0 0.226566 0 0 0 0 0.35829 0 0 0 1 0"/>
<feBlend mode="normal" in2="shape" result="effect1_innerShadow_283_31"/>
</filter>
<filter id="filter3_di_283_31" x="111.052" y="79.5195" width="217.292" height="267.824" filterUnits="userSpaceOnUse" color-interpolation-filters="sRGB">
<feFlood flood-opacity="0" result="BackgroundImageFix"/>
<feColorMatrix in="SourceAlpha" type="matrix" values="0 0 0 0 0 0 0 0 0 0 0 0 0 0 0 0 0 0 127 0" result="hardAlpha"/>
<feOffset dx="-14.1386" dy="14.1386"/>
<feComposite in2="hardAlpha" operator="out"/>
<feColorMatrix type="matrix" values="0 0 0 0 0.171681 0 0 0 0 0.226566 0 0 0 0 0.35829 0 0 0 1 0"/>
<feBlend mode="normal" in2="BackgroundImageFix" result="effect1_dropShadow_283_31"/>
<feBlend mode="normal" in="SourceGraphic" in2="effect1_dropShadow_283_31" result="shape"/>
<feColorMatrix in="SourceAlpha" type="matrix" values="0 0 0 0 0 0 0 0 0 0 0 0 0 0 0 0 0 0 127 0" result="hardAlpha"/>
<feOffset dy="7.06931"/>
<feGaussianBlur stdDeviation="3.53465"/>
<feComposite in2="hardAlpha" operator="arithmetic" k2="-1" k3="1"/>
<feColorMatrix type="matrix" values="0 0 0 0 0 0 0 0 0 0 0 0 0 0 0 0 0 0 0.25 0"/>
<feBlend mode="normal" in2="shape" result="effect2_innerShadow_283_31"/>
</filter>
</defs>
</svg>
