<svg width="455" height="447" viewBox="0 0 455 447" fill="none" xmlns="http://www.w3.org/2000/svg">
<g clip-path="url(#clip0_283_44)">
<g filter="url(#filter0_dd_283_44)">
<path d="M66 212.5C66 113.917 145.917 34 244.5 34C343.083 34 423 113.917 423 212.5C423 311.083 343.083 391 244.5 391C145.917 391 66 311.083 66 212.5Z" fill="#F6F1E3"/>
</g>
<g filter="url(#filter1_dd_283_44)">
<path fill-rule="evenodd" clip-rule="evenodd" d="M244.5 420.75C129.487 420.75 36.25 327.513 36.25 212.5C36.25 97.4867 129.487 4.25 244.5 4.25C359.513 4.25 452.75 97.4867 452.75 212.5C452.75 327.513 359.513 420.75 244.5 420.75ZM244.5 34C145.917 34 66 113.917 66 212.5C66 311.083 145.917 391 244.5 391C343.083 391 423 311.083 423 212.5C423 113.917 343.083 34 244.5 34Z" fill="#8E9BC7"/>
</g>
<g filter="url(#filter2_d_283_44)">
<path d="M66 212.5C66 113.917 145.917 34 244.5 34C343.083 34 423 113.917 423 212.5C423 311.083 343.083 391 244.5 391C145.917 391 66 311.083 66 212.5Z" fill="#F6F1E3"/>
</g>
<g filter="url(#filter3_d_283_44)">
<path fill-rule="evenodd" clip-rule="evenodd" d="M244.5 410.833C134.964 410.833 46.1667 322.036 46.1667 212.499C46.1667 102.963 134.964 14.166 244.5 14.166C354.037 14.166 442.833 102.963 442.833 212.499C442.833 322.036 354.037 410.833 244.5 410.833ZM244.5 33.9993C145.917 33.9993 66.0001 113.917 66.0001 212.499C66.0001 311.082 145.917 390.999 244.5 390.999C343.083 390.999 423 311.082 423 212.499C423 113.917 343.083 33.9993 244.5 33.9993Z" fill="#1D60B9"/>
</g>
<g filter="url(#filter4_i_283_44)">
<path d="M66 212.5C66 113.917 145.917 34 244.5 34C343.083 34 423 113.917 423 212.5C423 311.083 343.083 391 244.5 391C145.917 391 66 311.083 66 212.5Z" fill="#F6F1E3"/>
</g>
<g filter="url(#filter5_di_283_44)">
<path d="M191.884 335.697L143.893 298.04C140.927 295.713 140.306 291.469 142.51 288.41C149.096 279.273 158.238 266.933 160.75 264.838C163.822 262.277 163.629 259.184 163.149 257.957C159.066 244.277 167.777 206.914 168.575 198.114C169.373 189.313 167.442 142.112 170.08 132.591C172.19 124.974 180.345 123.761 184.158 124.107C198.816 126.856 200.601 172.732 203.13 169.304C207.386 163.534 261.93 90.3433 266.473 87.2062C272.152 83.2847 279.769 81.7948 285.193 86.2417C290.168 90.3205 289.145 98.6444 287.417 103.391C287.229 103.909 286.954 104.387 286.631 104.834L242.49 165.775C239.364 170.252 243.331 171.951 246.271 169.201C246.534 168.955 246.743 168.674 246.941 168.373C260.446 147.832 288.954 106.052 297.277 99.7595C305.28 93.7086 312.464 97.2874 315.442 100.153C315.714 100.415 315.992 100.67 316.278 100.915C321.897 105.73 320.875 113.598 318.884 118.66C318.68 119.18 318.402 119.647 318.064 120.092C302.783 140.221 272.775 179.168 272.255 180.008C271.215 181.689 265.898 186.217 268.817 188.57C271.297 190.569 272.95 188.649 273.297 188.089C283.747 173.952 305.64 144.527 309.607 139.918C314.566 134.157 321.125 130.315 330.247 137.353C337.545 142.984 334.464 152.82 332.012 157.034L296.741 203.524C295.408 205.177 293.254 208.709 295.303 209.604C297.351 210.5 299.196 209.07 299.863 208.243L315.058 187.439C324.335 173.196 334.416 176.181 338.897 178.953C347.41 184.22 344.354 195.707 340.423 201.273L295.303 266.008C283.547 288.011 268.429 298.175 259.87 304.497C253.764 309.008 234.253 310.632 223.805 310.989C221.674 311.062 219.673 312.035 218.346 313.704L201.781 334.535C199.362 337.577 194.941 338.096 191.884 335.697Z" fill="#FFC959"/>
</g>
<g filter="url(#filter6_d_283_44)">
<path fill-rule="evenodd" clip-rule="evenodd" d="M289.067 262.676C289.199 262.431 289.344 262.194 289.503 261.965L334.623 197.231L334.648 197.195C335.944 195.361 337.142 192.379 337.264 189.681C337.374 187.251 336.673 185.89 335.178 184.965C333.854 184.146 331.939 183.464 329.908 183.793C328.11 184.085 324.828 185.392 320.982 191.297C320.913 191.403 320.841 191.507 320.767 191.609L305.571 212.413C305.505 212.503 305.437 212.592 305.366 212.68C304.429 213.842 302.922 215.18 300.925 216.05C298.769 216.99 295.701 217.494 292.471 216.082C289.512 214.788 287.838 212.177 287.47 209.456C287.176 207.281 287.745 205.41 288.132 204.373C288.932 202.234 290.263 200.311 291.165 199.178L326.084 153.152C326.831 151.75 327.629 149.531 327.724 147.41C327.816 145.344 327.278 143.991 325.929 142.95C322.584 140.37 320.8 140.525 319.987 140.717C318.747 141.009 317.083 142.069 314.965 144.53C311.234 148.865 289.706 177.786 279.085 192.151C278.34 193.239 276.849 194.926 274.435 195.872C271.039 197.201 267.362 196.477 264.38 194.073C261.55 191.792 260.57 188.535 260.969 185.541C261.29 183.133 262.444 181.2 263.175 180.106C263.985 178.897 264.91 177.812 265.506 177.118C266.12 176.403 266.292 176.191 266.298 176.196C266.301 176.198 266.281 176.229 266.252 176.275C266.477 175.913 266.843 175.428 266.993 175.229C267.007 175.209 267.02 175.192 267.03 175.178C267.297 174.823 267.664 174.337 268.117 173.741C269.025 172.546 270.306 170.869 271.869 168.826C274.647 165.195 278.335 160.387 282.444 155.029L284.015 152.981C293.47 140.651 304.746 125.942 312.373 115.897C313.065 114.076 313.493 111.971 313.379 110.131C313.27 108.363 312.711 107.168 311.679 106.284C311.266 105.93 310.887 105.58 310.542 105.248C309.906 104.636 308.644 103.831 307.149 103.597C305.913 103.403 304.043 103.506 301.541 105.398C300.304 106.333 297.505 109.375 293.343 114.634C289.393 119.626 284.703 125.974 279.805 132.832C270.018 146.536 259.567 162.037 252.848 172.257C252.522 172.752 251.956 173.564 251.099 174.365C248.438 176.853 243.067 179.311 238.205 176.093C235.459 174.277 234.197 171.291 234.283 168.379C234.359 165.759 235.468 163.483 236.694 161.728C236.718 161.694 236.741 161.661 236.765 161.628L280.847 100.768C281.424 99.1038 281.851 96.8815 281.758 94.8988C281.658 92.7946 281.059 91.9938 280.711 91.7086L285.193 86.2417C288.646 89.0719 289.21 93.946 288.654 98.2507C288.409 100.15 287.946 101.938 287.417 103.391C287.229 103.909 286.954 104.387 286.631 104.834L242.742 165.427L242.49 165.775C239.364 170.252 243.331 171.951 246.271 169.201C246.41 169.072 246.533 168.933 246.648 168.786C246.666 168.763 246.684 168.739 246.702 168.716C246.785 168.605 246.864 168.49 246.941 168.373C247.291 167.841 247.65 167.296 248.019 166.737C259.05 150.023 278.518 121.475 290.124 107.363C290.791 106.551 291.433 105.787 292.045 105.076C293.233 103.697 294.312 102.516 295.258 101.57C296.021 100.807 296.698 100.197 297.277 99.7595C305.28 93.7086 312.464 97.2874 315.442 100.153C315.714 100.415 315.992 100.67 316.278 100.915C321.897 105.73 320.875 113.598 318.884 118.66C318.68 119.18 318.402 119.647 318.064 120.092C315.954 122.872 313.563 126.01 311.008 129.357C309.264 131.642 307.443 134.024 305.583 136.455C299.749 144.081 293.526 152.195 288.056 159.328C279.318 170.721 272.501 179.611 272.255 180.008C272.023 180.383 271.579 180.899 271.06 181.501C270.806 181.797 270.534 182.113 270.26 182.443C269.682 183.141 269.098 183.901 268.662 184.662C268.582 184.802 268.507 184.942 268.437 185.082C267.795 186.377 267.666 187.642 268.817 188.57C271.297 190.569 272.95 188.649 273.297 188.089C273.813 187.39 274.357 186.655 274.925 185.887C275.608 184.965 276.325 183.996 277.072 182.989C288.294 167.849 306.071 144.026 309.607 139.918C311.423 137.809 313.453 135.956 315.745 134.801C319.713 132.802 324.465 132.892 330.247 137.353C337.545 142.984 334.464 152.82 332.012 157.034L296.741 203.524C296.432 203.908 296.078 204.393 295.743 204.923C295.698 204.993 295.654 205.065 295.61 205.137C294.566 206.853 293.793 208.944 295.303 209.604C297.351 210.5 299.196 209.07 299.863 208.243L315.058 187.439C318.363 182.366 321.769 179.479 324.988 177.989C330.806 175.295 336.012 177.168 338.897 178.953C347.41 184.22 344.354 195.707 340.423 201.273L295.303 266.008C284.285 286.63 270.313 296.853 261.557 303.26C260.97 303.689 260.407 304.101 259.87 304.497C253.764 309.008 234.253 310.632 223.805 310.989C221.674 311.062 219.673 312.035 218.346 313.704L201.781 334.535C199.362 337.577 194.941 338.096 191.884 335.697L143.893 298.04C140.927 295.713 140.306 291.469 142.51 288.41C149.096 279.273 158.238 266.933 160.75 264.838C163.822 262.277 163.629 259.184 163.149 257.957C160.097 247.732 164.193 224.275 166.79 209.405C167.667 204.38 168.374 200.336 168.575 198.114C168.864 194.932 168.795 186.731 168.715 177.106C168.574 160.109 168.396 138.669 170.08 132.591C172.19 124.974 180.345 123.761 184.158 124.107C194.111 125.973 198.129 147.725 200.474 160.423C200.504 160.585 200.534 160.745 200.563 160.904C200.679 161.529 200.79 162.129 200.898 162.703C201.414 165.45 201.85 167.572 202.264 168.666C202.557 169.439 202.838 169.699 203.13 169.304C203.684 168.553 205.092 166.657 207.132 163.921C207.435 163.513 207.753 163.088 208.083 162.644C222.592 143.196 262.609 89.8738 266.473 87.2062C272.152 83.2847 279.769 81.7948 285.193 86.2417L280.711 91.7086C278.875 90.2031 275.146 89.9277 270.765 92.8368C270.68 92.9228 270.52 93.0865 270.273 93.3565C269.726 93.9538 268.982 94.8123 268.044 95.9335C266.176 98.1661 263.707 101.241 260.812 104.918C255.032 112.262 247.685 121.846 240.324 131.542C225.606 150.93 210.926 170.644 208.819 173.501C208.311 174.189 206.829 175.972 204.113 176.447C201.018 176.989 198.783 175.462 197.782 174.507C196.845 173.613 196.333 172.662 196.107 172.213C195.837 171.673 195.641 171.156 195.503 170.752C194.999 169.282 194.582 167.28 194.221 165.426C193.986 164.218 193.746 162.92 193.493 161.549C192.883 158.246 192.194 154.518 191.3 150.593C190.035 145.045 188.502 139.802 186.601 135.919C184.845 132.331 183.5 131.36 183.029 131.124C182.029 131.113 180.57 131.291 179.306 131.843C178.029 132.4 177.259 133.155 176.893 134.478C176.497 135.904 176.118 139.765 175.909 145.85C175.712 151.611 175.68 158.568 175.707 165.596C175.722 169.546 175.754 173.358 175.784 176.99C175.809 179.942 175.832 182.776 175.845 185.468C175.872 191.14 175.853 196.137 175.616 198.752C175.387 201.267 174.648 205.501 173.834 210.159L173.76 210.587C172.897 215.528 171.887 221.31 171.027 227.223C170.158 233.199 169.463 239.167 169.224 244.397C168.981 249.689 169.247 253.533 169.877 255.777C171.154 259.514 170.78 265.671 165.29 270.257C165.295 270.253 165.298 270.251 165.298 270.251C165.299 270.252 165.133 270.406 164.755 270.823C164.353 271.267 163.84 271.865 163.223 272.615C161.99 274.111 160.467 276.056 158.779 278.269C155.423 282.672 151.548 287.962 148.279 292.496L196.248 330.135L212.813 309.304C215.476 305.955 219.441 304.065 223.563 303.924C228.622 303.751 235.835 303.271 242.444 302.306C245.753 301.823 248.774 301.237 251.236 300.553C253.862 299.824 255.209 299.152 255.67 298.811C256.205 298.416 256.76 298.01 257.334 297.589C265.964 291.27 278.821 281.855 289.067 262.676ZM248.159 170.026C248.158 170.027 248.164 170.013 248.18 169.986C248.168 170.013 248.16 170.026 248.159 170.026Z" fill="#1D60B9"/>
</g>
</g>
<defs>
<filter id="filter0_dd_283_44" x="46.1667" y="34" width="384.767" height="376.833" filterUnits="userSpaceOnUse" color-interpolation-filters="sRGB">
<feFlood flood-opacity="0" result="BackgroundImageFix"/>
<feColorMatrix in="SourceAlpha" type="matrix" values="0 0 0 0 0 0 0 0 0 0 0 0 0 0 0 0 0 0 127 0" result="hardAlpha"/>
<feOffset dy="7.93333"/>
<feGaussianBlur stdDeviation="3.96667"/>
<feComposite in2="hardAlpha" operator="out"/>
<feColorMatrix type="matrix" values="0 0 0 0 0 0 0 0 0 0 0 0 0 0 0 0 0 0 0.25 0"/>
<feBlend mode="normal" in2="BackgroundImageFix" result="effect1_dropShadow_283_44"/>
<feColorMatrix in="SourceAlpha" type="matrix" values="0 0 0 0 0 0 0 0 0 0 0 0 0 0 0 0 0 0 127 0" result="hardAlpha"/>
<feOffset dx="-19.8333" dy="19.8333"/>
<feComposite in2="hardAlpha" operator="out"/>
<feColorMatrix type="matrix" values="0 0 0 0 0.171681 0 0 0 0 0.226566 0 0 0 0 0.35829 0 0 0 1 0"/>
<feBlend mode="normal" in2="effect1_dropShadow_283_44" result="effect2_dropShadow_283_44"/>
<feBlend mode="normal" in="SourceGraphic" in2="effect2_dropShadow_283_44" result="shape"/>
</filter>
<filter id="filter1_dd_283_44" x="16.4167" y="4.25" width="444.267" height="436.333" filterUnits="userSpaceOnUse" color-interpolation-filters="sRGB">
<feFlood flood-opacity="0" result="BackgroundImageFix"/>
<feColorMatrix in="SourceAlpha" type="matrix" values="0 0 0 0 0 0 0 0 0 0 0 0 0 0 0 0 0 0 127 0" result="hardAlpha"/>
<feOffset dy="7.93333"/>
<feGaussianBlur stdDeviation="3.96667"/>
<feComposite in2="hardAlpha" operator="out"/>
<feColorMatrix type="matrix" values="0 0 0 0 0 0 0 0 0 0 0 0 0 0 0 0 0 0 0.25 0"/>
<feBlend mode="normal" in2="BackgroundImageFix" result="effect1_dropShadow_283_44"/>
<feColorMatrix in="SourceAlpha" type="matrix" values="0 0 0 0 0 0 0 0 0 0 0 0 0 0 0 0 0 0 127 0" result="hardAlpha"/>
<feOffset dx="-19.8333" dy="19.8333"/>
<feComposite in2="hardAlpha" operator="out"/>
<feColorMatrix type="matrix" values="0 0 0 0 0.171681 0 0 0 0 0.226566 0 0 0 0 0.35829 0 0 0 1 0"/>
<feBlend mode="normal" in2="effect1_dropShadow_283_44" result="effect2_dropShadow_283_44"/>
<feBlend mode="normal" in="SourceGraphic" in2="effect2_dropShadow_283_44" result="shape"/>
</filter>
<filter id="filter2_d_283_44" x="58.0667" y="34" width="372.867" height="372.867" filterUnits="userSpaceOnUse" color-interpolation-filters="sRGB">
<feFlood flood-opacity="0" result="BackgroundImageFix"/>
<feColorMatrix in="SourceAlpha" type="matrix" values="0 0 0 0 0 0 0 0 0 0 0 0 0 0 0 0 0 0 127 0" result="hardAlpha"/>
<feOffset dy="7.93333"/>
<feGaussianBlur stdDeviation="3.96667"/>
<feComposite in2="hardAlpha" operator="out"/>
<feColorMatrix type="matrix" values="0 0 0 0 0 0 0 0 0 0 0 0 0 0 0 0 0 0 0.25 0"/>
<feBlend mode="normal" in2="BackgroundImageFix" result="effect1_dropShadow_283_44"/>
<feBlend mode="normal" in="SourceGraphic" in2="effect1_dropShadow_283_44" result="shape"/>
</filter>
<filter id="filter3_d_283_44" x="38.2334" y="14.166" width="412.533" height="412.533" filterUnits="userSpaceOnUse" color-interpolation-filters="sRGB">
<feFlood flood-opacity="0" result="BackgroundImageFix"/>
<feColorMatrix in="SourceAlpha" type="matrix" values="0 0 0 0 0 0 0 0 0 0 0 0 0 0 0 0 0 0 127 0" result="hardAlpha"/>
<feOffset dy="7.93333"/>
<feGaussianBlur stdDeviation="3.96667"/>
<feComposite in2="hardAlpha" operator="out"/>
<feColorMatrix type="matrix" values="0 0 0 0 0 0 0 0 0 0 0 0 0 0 0 0 0 0 0.25 0"/>
<feBlend mode="normal" in2="BackgroundImageFix" result="effect1_dropShadow_283_44"/>
<feBlend mode="normal" in="SourceGraphic" in2="effect1_dropShadow_283_44" result="shape"/>
</filter>
<filter id="filter4_i_283_44" x="66" y="34" width="357" height="357" filterUnits="userSpaceOnUse" color-interpolation-filters="sRGB">
<feFlood flood-opacity="0" result="BackgroundImageFix"/>
<feBlend mode="normal" in="SourceGraphic" in2="BackgroundImageFix" result="shape"/>
<feColorMatrix in="SourceAlpha" type="matrix" values="0 0 0 0 0 0 0 0 0 0 0 0 0 0 0 0 0 0 127 0" result="hardAlpha"/>
<feOffset dx="-9.91667" dy="9.91667"/>
<feComposite in2="hardAlpha" operator="arithmetic" k2="-1" k3="1"/>
<feColorMatrix type="matrix" values="0 0 0 0 0.171681 0 0 0 0 0.226566 0 0 0 0 0.35829 0 0 0 1 0"/>
<feBlend mode="normal" in2="shape" result="effect1_innerShadow_283_44"/>
</filter>
<filter id="filter5_di_283_44" x="127.052" y="83.5195" width="217.292" height="267.824" filterUnits="userSpaceOnUse" color-interpolation-filters="sRGB">
<feFlood flood-opacity="0" result="BackgroundImageFix"/>
<feColorMatrix in="SourceAlpha" type="matrix" values="0 0 0 0 0 0 0 0 0 0 0 0 0 0 0 0 0 0 127 0" result="hardAlpha"/>
<feOffset dx="-14.1386" dy="14.1386"/>
<feComposite in2="hardAlpha" operator="out"/>
<feColorMatrix type="matrix" values="0 0 0 0 0.171681 0 0 0 0 0.226566 0 0 0 0 0.35829 0 0 0 1 0"/>
<feBlend mode="normal" in2="BackgroundImageFix" result="effect1_dropShadow_283_44"/>
<feBlend mode="normal" in="SourceGraphic" in2="effect1_dropShadow_283_44" result="shape"/>
<feColorMatrix in="SourceAlpha" type="matrix" values="0 0 0 0 0 0 0 0 0 0 0 0 0 0 0 0 0 0 127 0" result="hardAlpha"/>
<feOffset dy="7.06931"/>
<feGaussianBlur stdDeviation="3.53465"/>
<feComposite in2="hardAlpha" operator="arithmetic" k2="-1" k3="1"/>
<feColorMatrix type="matrix" values="0 0 0 0 0 0 0 0 0 0 0 0 0 0 0 0 0 0 0.25 0"/>
<feBlend mode="normal" in2="shape" result="effect2_innerShadow_283_44"/>
</filter>
<filter id="filter6_d_283_44" x="137.19" y="83.5195" width="211.153" height="261.686" filterUnits="userSpaceOnUse" color-interpolation-filters="sRGB">
<feFlood flood-opacity="0" result="BackgroundImageFix"/>
<feColorMatrix in="SourceAlpha" type="matrix" values="0 0 0 0 0 0 0 0 0 0 0 0 0 0 0 0 0 0 127 0" result="hardAlpha"/>
<feOffset dy="4"/>
<feGaussianBlur stdDeviation="2"/>
<feComposite in2="hardAlpha" operator="out"/>
<feColorMatrix type="matrix" values="0 0 0 0 0 0 0 0 0 0 0 0 0 0 0 0 0 0 0.25 0"/>
<feBlend mode="normal" in2="BackgroundImageFix" result="effect1_dropShadow_283_44"/>
<feBlend mode="normal" in="SourceGraphic" in2="effect1_dropShadow_283_44" result="shape"/>
</filter>
<clipPath id="clip0_283_44">
<rect width="455" height="447" rx="100" fill="white"/>
</clipPath>
</defs>
</svg>
