<svg width="455" height="447" viewBox="0 0 455 447" fill="none" xmlns="http://www.w3.org/2000/svg">
<g filter="url(#filter0_d_283_45)">
<path d="M66 212.5C66 114.893 146.893 34 244.5 34C342.107 34 423 114.893 423 212.5C423 310.107 342.107 391 244.5 391C146.893 391 66 310.107 66 212.5Z" fill="#F6F1E3"/>
</g>
<g filter="url(#filter1_d_283_45)">
<path fill-rule="evenodd" clip-rule="evenodd" d="M244.5 417.51C132.252 417.51 39.49 324.748 39.49 212.5C39.49 100.252 132.252 7.49023 244.5 7.49023C356.748 7.49023 449.51 100.252 449.51 212.5C449.51 324.748 356.748 417.51 244.5 417.51ZM244.5 34.0001C146.893 34.0001 65.9999 114.893 65.9999 212.5C65.9999 310.107 146.893 391 244.5 391C342.107 391 423 310.107 423 212.5C423 114.893 342.107 34.0001 244.5 34.0001Z" fill="#8E9BC7"/>
</g>
<g filter="url(#filter2_d_283_45)">
<path d="M66 212.5C66 114.893 146.893 34 244.5 34C342.107 34 423 114.893 423 212.5C423 310.107 342.107 391 244.5 391C146.893 391 66 310.107 66 212.5Z" fill="#F6F1E3"/>
</g>
<g filter="url(#filter3_d_283_45)">
<path fill-rule="evenodd" clip-rule="evenodd" d="M244.5 408.673C137.132 408.673 48.3267 319.867 48.3267 212.499C48.3267 105.132 137.132 16.3262 244.5 16.3262C351.867 16.3262 440.673 105.132 440.673 212.499C440.673 319.867 351.867 408.673 244.5 408.673ZM244.5 33.9994C146.893 33.9994 65.9999 114.893 65.9999 212.499C65.9999 310.106 146.893 390.999 244.5 390.999C342.107 390.999 423 310.106 423 212.499C423 114.893 342.107 33.9994 244.5 33.9994Z" fill="#1D60B9"/>
</g>
<g filter="url(#filter4_i_283_45)">
<path d="M66 212.5C66 114.893 146.893 34 244.5 34C342.107 34 423 114.893 423 212.5C423 310.107 342.107 391 244.5 391C146.893 391 66 310.107 66 212.5Z" fill="#FAF6EE"/>
</g>
<g filter="url(#filter5_di_283_45)">
<path d="M242.943 94.0898C227.512 161.749 227.512 194.986 134.926 213.978C226.325 227.035 238.195 299.443 242.943 332.679C257.188 238.668 290.424 229.409 353.335 213.978C256.001 194.986 259.562 154.627 242.943 94.0898Z" fill="white"/>
</g>
<g filter="url(#filter6_di_283_45)">
<path fill-rule="evenodd" clip-rule="evenodd" d="M126.093 214.244C125.963 209.949 128.941 206.184 133.15 205.32C178.683 195.98 199.094 183.567 210.647 167.189C216.57 158.793 220.575 148.792 224.066 136.313C226.511 127.574 228.591 118.083 230.944 107.348C231.998 102.538 233.107 97.4778 234.328 92.1237C235.229 88.1739 238.7 85.3425 242.751 85.2541C246.801 85.1656 250.392 87.8427 251.465 91.7494C253.582 99.4619 255.373 106.836 257.053 113.758L257.069 113.824C258.754 120.766 260.318 127.206 262.025 133.308C265.451 145.553 269.304 155.831 275.223 164.71C286.702 181.929 307.43 196.016 355.028 205.304C359.1 206.098 362.07 209.618 362.17 213.765C362.269 217.913 359.47 221.571 355.441 222.559C323.459 230.404 301.777 236.194 285.767 250.458C270.117 264.401 258.693 287.718 251.68 334.001C251.024 338.335 247.289 341.533 242.906 341.514C238.523 341.496 234.816 338.267 234.196 333.927C231.828 317.357 227.846 292.618 213.943 270.456C200.332 248.758 176.789 228.883 133.676 222.724C129.423 222.117 126.223 218.538 126.093 214.244ZM155.556 209.099C149.243 210.824 142.385 212.447 134.926 213.977C142.307 215.031 149.17 216.473 155.552 218.25C211.943 233.949 230.816 275.816 238.48 308.056C240.689 317.349 241.967 325.842 242.944 332.678C244.302 323.714 245.833 315.52 247.545 308.019C261.889 245.193 288.994 230.883 334.298 218.789C340.318 217.182 346.66 215.614 353.335 213.977C346.489 212.641 340.142 211.199 334.252 209.652C266.946 191.976 259.318 160.551 248.503 115.994C248.266 115.02 248.028 114.039 247.788 113.053C246.308 106.969 244.744 100.647 242.944 94.0886C241.769 99.2388 240.684 104.19 239.64 108.95C239.329 110.368 239.022 111.77 238.717 113.155C227.691 163.258 219.869 191.522 155.556 209.099Z" fill="#8E9BC7"/>
</g>
<g filter="url(#filter7_i_283_45)">
<path d="M242.943 94.0898C227.512 161.749 227.512 194.986 134.926 213.978C226.325 227.035 238.195 299.443 242.943 332.679C257.188 238.668 290.424 229.409 353.335 213.978C256.001 194.986 259.562 154.627 242.943 94.0898Z" fill="#1D60B9"/>
</g>
<defs>
<filter id="filter0_d_283_45" x="48.3267" y="34" width="374.673" height="374.673" filterUnits="userSpaceOnUse" color-interpolation-filters="sRGB">
<feFlood flood-opacity="0" result="BackgroundImageFix"/>
<feColorMatrix in="SourceAlpha" type="matrix" values="0 0 0 0 0 0 0 0 0 0 0 0 0 0 0 0 0 0 127 0" result="hardAlpha"/>
<feOffset dx="-17.6733" dy="17.6733"/>
<feComposite in2="hardAlpha" operator="out"/>
<feColorMatrix type="matrix" values="0 0 0 0 0.171681 0 0 0 0 0.226566 0 0 0 0 0.35829 0 0 0 1 0"/>
<feBlend mode="normal" in2="BackgroundImageFix" result="effect1_dropShadow_283_45"/>
<feBlend mode="normal" in="SourceGraphic" in2="effect1_dropShadow_283_45" result="shape"/>
</filter>
<filter id="filter1_d_283_45" x="21.8167" y="7.49023" width="427.693" height="427.693" filterUnits="userSpaceOnUse" color-interpolation-filters="sRGB">
<feFlood flood-opacity="0" result="BackgroundImageFix"/>
<feColorMatrix in="SourceAlpha" type="matrix" values="0 0 0 0 0 0 0 0 0 0 0 0 0 0 0 0 0 0 127 0" result="hardAlpha"/>
<feOffset dx="-17.6733" dy="17.6733"/>
<feComposite in2="hardAlpha" operator="out"/>
<feColorMatrix type="matrix" values="0 0 0 0 0.171681 0 0 0 0 0.226566 0 0 0 0 0.35829 0 0 0 1 0"/>
<feBlend mode="normal" in2="BackgroundImageFix" result="effect1_dropShadow_283_45"/>
<feBlend mode="normal" in="SourceGraphic" in2="effect1_dropShadow_283_45" result="shape"/>
</filter>
<filter id="filter2_d_283_45" x="58.9307" y="34" width="371.139" height="371.139" filterUnits="userSpaceOnUse" color-interpolation-filters="sRGB">
<feFlood flood-opacity="0" result="BackgroundImageFix"/>
<feColorMatrix in="SourceAlpha" type="matrix" values="0 0 0 0 0 0 0 0 0 0 0 0 0 0 0 0 0 0 127 0" result="hardAlpha"/>
<feOffset dy="7.06931"/>
<feGaussianBlur stdDeviation="3.53465"/>
<feComposite in2="hardAlpha" operator="out"/>
<feColorMatrix type="matrix" values="0 0 0 0 0 0 0 0 0 0 0 0 0 0 0 0 0 0 0.25 0"/>
<feBlend mode="normal" in2="BackgroundImageFix" result="effect1_dropShadow_283_45"/>
<feBlend mode="normal" in="SourceGraphic" in2="effect1_dropShadow_283_45" result="shape"/>
</filter>
<filter id="filter3_d_283_45" x="41.2574" y="16.3262" width="406.485" height="406.484" filterUnits="userSpaceOnUse" color-interpolation-filters="sRGB">
<feFlood flood-opacity="0" result="BackgroundImageFix"/>
<feColorMatrix in="SourceAlpha" type="matrix" values="0 0 0 0 0 0 0 0 0 0 0 0 0 0 0 0 0 0 127 0" result="hardAlpha"/>
<feOffset dy="7.06931"/>
<feGaussianBlur stdDeviation="3.53465"/>
<feComposite in2="hardAlpha" operator="out"/>
<feColorMatrix type="matrix" values="0 0 0 0 0 0 0 0 0 0 0 0 0 0 0 0 0 0 0.25 0"/>
<feBlend mode="normal" in2="BackgroundImageFix" result="effect1_dropShadow_283_45"/>
<feBlend mode="normal" in="SourceGraphic" in2="effect1_dropShadow_283_45" result="shape"/>
</filter>
<filter id="filter4_i_283_45" x="66" y="34" width="357" height="357" filterUnits="userSpaceOnUse" color-interpolation-filters="sRGB">
<feFlood flood-opacity="0" result="BackgroundImageFix"/>
<feBlend mode="normal" in="SourceGraphic" in2="BackgroundImageFix" result="shape"/>
<feColorMatrix in="SourceAlpha" type="matrix" values="0 0 0 0 0 0 0 0 0 0 0 0 0 0 0 0 0 0 127 0" result="hardAlpha"/>
<feOffset dx="-8.83663" dy="8.83663"/>
<feComposite in2="hardAlpha" operator="arithmetic" k2="-1" k3="1"/>
<feColorMatrix type="matrix" values="0 0 0 0 0.171681 0 0 0 0 0.226566 0 0 0 0 0.35829 0 0 0 1 0"/>
<feBlend mode="normal" in2="shape" result="effect1_innerShadow_283_45"/>
</filter>
<filter id="filter5_di_283_45" x="120.787" y="94.0898" width="232.549" height="252.728" filterUnits="userSpaceOnUse" color-interpolation-filters="sRGB">
<feFlood flood-opacity="0" result="BackgroundImageFix"/>
<feColorMatrix in="SourceAlpha" type="matrix" values="0 0 0 0 0 0 0 0 0 0 0 0 0 0 0 0 0 0 127 0" result="hardAlpha"/>
<feOffset dx="-14.1386" dy="14.1386"/>
<feComposite in2="hardAlpha" operator="out"/>
<feColorMatrix type="matrix" values="0 0 0 0 0.171681 0 0 0 0 0.226566 0 0 0 0 0.35829 0 0 0 1 0"/>
<feBlend mode="normal" in2="BackgroundImageFix" result="effect1_dropShadow_283_45"/>
<feBlend mode="normal" in="SourceGraphic" in2="effect1_dropShadow_283_45" result="shape"/>
<feColorMatrix in="SourceAlpha" type="matrix" values="0 0 0 0 0 0 0 0 0 0 0 0 0 0 0 0 0 0 127 0" result="hardAlpha"/>
<feOffset dy="7.06931"/>
<feGaussianBlur stdDeviation="3.53465"/>
<feComposite in2="hardAlpha" operator="arithmetic" k2="-1" k3="1"/>
<feColorMatrix type="matrix" values="0 0 0 0 0 0 0 0 0 0 0 0 0 0 0 0 0 0 0.25 0"/>
<feBlend mode="normal" in2="shape" result="effect2_innerShadow_283_45"/>
</filter>
<filter id="filter6_di_283_45" x="111.95" y="85.252" width="250.222" height="270.4" filterUnits="userSpaceOnUse" color-interpolation-filters="sRGB">
<feFlood flood-opacity="0" result="BackgroundImageFix"/>
<feColorMatrix in="SourceAlpha" type="matrix" values="0 0 0 0 0 0 0 0 0 0 0 0 0 0 0 0 0 0 127 0" result="hardAlpha"/>
<feOffset dx="-14.1386" dy="14.1386"/>
<feComposite in2="hardAlpha" operator="out"/>
<feColorMatrix type="matrix" values="0 0 0 0 0.171681 0 0 0 0 0.226566 0 0 0 0 0.35829 0 0 0 1 0"/>
<feBlend mode="normal" in2="BackgroundImageFix" result="effect1_dropShadow_283_45"/>
<feBlend mode="normal" in="SourceGraphic" in2="effect1_dropShadow_283_45" result="shape"/>
<feColorMatrix in="SourceAlpha" type="matrix" values="0 0 0 0 0 0 0 0 0 0 0 0 0 0 0 0 0 0 127 0" result="hardAlpha"/>
<feOffset dy="7.06931"/>
<feGaussianBlur stdDeviation="3.53465"/>
<feComposite in2="hardAlpha" operator="arithmetic" k2="-1" k3="1"/>
<feColorMatrix type="matrix" values="0 0 0 0 0 0 0 0 0 0 0 0 0 0 0 0 0 0 0.25 0"/>
<feBlend mode="normal" in2="shape" result="effect2_innerShadow_283_45"/>
</filter>
<filter id="filter7_i_283_45" x="131.391" y="94.0898" width="221.945" height="242.124" filterUnits="userSpaceOnUse" color-interpolation-filters="sRGB">
<feFlood flood-opacity="0" result="BackgroundImageFix"/>
<feBlend mode="normal" in="SourceGraphic" in2="BackgroundImageFix" result="shape"/>
<feColorMatrix in="SourceAlpha" type="matrix" values="0 0 0 0 0 0 0 0 0 0 0 0 0 0 0 0 0 0 127 0" result="hardAlpha"/>
<feOffset dx="-3.53465" dy="3.53465"/>
<feGaussianBlur stdDeviation="3.53465"/>
<feComposite in2="hardAlpha" operator="arithmetic" k2="-1" k3="1"/>
<feColorMatrix type="matrix" values="0 0 0 0 0 0 0 0 0 0 0 0 0 0 0 0 0 0 0.25 0"/>
<feBlend mode="normal" in2="shape" result="effect1_innerShadow_283_45"/>
</filter>
</defs>
</svg>
