<svg width="267" height="256" viewBox="0 0 267 256" fill="none" xmlns="http://www.w3.org/2000/svg">
<path d="M99.4048 66.2694C98.5648 63.2094 95.7516 61.1126 92.5792 61.1819C89.4068 61.2512 86.6878 63.4688 85.9823 66.5625C85.0897 70.4761 84.2801 74.1702 83.5111 77.6789C81.7981 85.495 80.2866 92.3917 78.5082 98.7482C75.9706 107.819 73.0699 115.049 68.7979 121.105C60.4831 132.892 45.7552 141.904 12.6092 148.703C9.31262 149.38 6.98015 152.329 7.08181 155.693C7.18347 159.056 9.68978 161.859 13.0212 162.335C44.304 166.804 61.3396 181.209 71.186 196.905C81.2606 212.964 84.1536 230.904 85.8785 242.979C86.3641 246.378 89.2678 248.907 92.701 248.922C96.1343 248.936 99.0592 246.432 99.5736 243.037C104.679 209.342 112.981 192.483 124.263 182.432C135.826 172.13 151.501 167.93 174.84 162.206C177.996 161.432 180.188 158.566 180.11 155.318C180.033 152.07 177.706 149.313 174.517 148.69C139.882 141.932 124.923 131.706 116.658 119.309C112.384 112.898 109.593 105.463 107.101 96.5579C105.859 92.1181 104.721 87.4309 103.492 82.3672L103.481 82.3242C102.257 77.2804 100.95 71.8986 99.4048 66.2694Z" fill="white" stroke="#1D60B9" stroke-width="13.8427" stroke-linejoin="round"/>
<path d="M219.27 9.61518C218.637 7.32523 216.529 5.75798 214.153 5.81025C211.778 5.86251 209.741 7.52095 209.209 9.83656C208.734 11.9003 208.307 13.8319 207.904 15.6563C207.016 19.6731 206.244 23.17 205.329 26.4124C204.029 31.0212 202.578 34.5613 200.502 37.48C196.518 43.0811 189.323 47.6335 172.156 51.1258C169.68 51.6294 167.927 53.8427 168.002 56.3682C168.078 58.8937 169.961 60.9979 172.463 61.3523C188.336 63.6011 196.815 70.7959 201.699 78.5164C206.754 86.5079 208.231 95.4805 209.13 101.718C209.496 104.264 211.673 106.158 214.245 106.168C216.818 106.179 219.011 104.305 219.399 101.762C222.041 84.4666 226.288 76.2019 231.754 71.3723C237.44 66.3487 245.202 64.2417 257.474 61.2565C259.845 60.6797 261.495 58.5291 261.437 56.0894C261.379 53.6497 259.629 51.5797 257.233 51.1161C239.344 47.6544 232.025 42.4921 228.055 36.5856C225.965 33.4771 224.565 29.821 223.284 25.279C222.643 23.0093 222.055 20.6074 221.411 17.9746L221.41 17.9696C220.772 15.3623 220.084 12.5548 219.27 9.61518Z" fill="white" stroke="#1D60B9" stroke-width="10.382" stroke-linejoin="round"/>
</svg>
