<svg width="2160" height="771" viewBox="0 0 2160 771" fill="none" xmlns="http://www.w3.org/2000/svg">
<g clip-path="url(#clip0_200_1221)" filter="url(#filter0_i_200_1221)">
<rect width="2160" height="771" fill="#1D60B9"/>
<g filter="url(#filter1_d_200_1221)">
<path d="M1306.54 280C1309.54 280 1310.44 281.2 1310.44 283C1310.44 284.5 1309.24 285.1 1308.34 287.2C1295.14 315.4 1292.14 357.7 1292.14 385C1292.14 412 1295.14 454.6 1308.34 482.8C1309.24 484.9 1310.44 485.2 1310.44 487C1310.44 488.5 1309.54 490 1306.54 490C1296.94 490 1282.54 488.8 1272.64 488.8C1263.04 488.8 1248.64 490 1238.74 490C1235.44 490 1233.94 488.8 1233.94 487C1233.94 484.9 1235.14 484 1237.24 483.4C1250.44 479.8 1258.24 461.8 1262.74 440.5C1264.54 418.3 1249.24 387.4 1223.74 389.2C1203.64 390.7 1193.74 409.9 1197.04 428.5C1198.84 438.4 1204.24 447.4 1214.14 447.7C1217.74 447.7 1223.14 445.6 1224.34 440.8C1224.34 439.9 1224.34 439 1224.04 438.7C1222.54 437.2 1223.74 435.7 1225.84 436.6C1236.34 440.5 1238.14 459.7 1233.94 469C1227.64 482.5 1213.54 490 1199.14 490C1179.64 490 1159.84 475.6 1159.84 443.5C1159.84 383.8 1210.54 326.5 1259.44 295C1248.34 295.3 1236.04 294.1 1227.64 293.5C1211.14 292.6 1194.04 299.5 1189.24 316.6C1187.74 322.9 1188.34 330.7 1193.14 335.2C1194.04 336.1 1195.54 337 1196.74 337C1199.14 336.4 1199.44 338.8 1197.04 340C1188.94 344.5 1178.14 344.2 1170.94 338.8C1163.44 333.1 1159.84 325.3 1159.84 316.9C1159.84 298.9 1175.14 280 1202.14 280C1227.34 280 1243.84 284.5 1267.84 283.6C1281.94 283 1293.04 280 1306.54 280ZM1200.04 387.7C1207.84 381.1 1217.74 376.9 1229.14 376.6C1243.54 376.3 1257.94 382.3 1267.84 392.8C1267.84 390.1 1267.84 387.4 1267.84 385V332.5C1267.84 317.2 1274.44 302.2 1285.24 291.4C1268.44 299.2 1253.14 310.9 1240.84 322.6C1224.04 338.8 1207.54 362.8 1200.04 387.7Z" fill="#F6F1E3"/>
</g>
<g filter="url(#filter2_d_200_1221)">
<path d="M1137.7 281.5C1137.4 280.6 1138 280 1138.9 280C1141.6 280 1143.7 283 1145.2 285.4C1149.1 291.4 1150.9 299.2 1150.9 307.3C1150.9 331.9 1135.6 347.5 1109.8 343.9C1087.9 340.6 1076.5 316.9 1063.6 302.2C1036.9 271.9 1017.1 305.2 1042.3 330.1C1063.3 350.8 1100.5 349.9 1126 369.1C1141.6 381.1 1150.9 397.9 1150.9 421.9C1150.9 456.1 1126.6 490 1080.4 490C1029.1 490 1007.2 458.2 1007.2 429.1C1007.2 405.7 1021 383.8 1047.7 381.4C1064.5 379.9 1078.6 388.6 1078.6 406.9C1078.6 409.3 1076.5 409.3 1076.5 407.8C1076.8 407.2 1076.2 406.3 1075.6 405.7C1068.7 400.3 1060.9 403.3 1055.5 409C1044.1 422.2 1045.6 448.6 1051.9 462.7C1066 494.8 1104.7 484.6 1109.5 437.5C1111.6 416.2 1107.7 380.2 1090.6 364.6C1084.9 359.5 1076.5 359.5 1064.5 365.8C1035.1 381.1 1007.2 364 1007.2 329.8C1007.2 297.7 1027 280 1051.3 280C1081.3 280 1088.2 295.6 1116.4 293.5C1125.1 292.9 1132.3 290.2 1137.1 284.8C1138 283.6 1138 282.7 1137.7 281.5Z" fill="#F6F1E3"/>
</g>
<g filter="url(#filter3_d_200_1221)">
<path d="M852.9 280C862.5 280 869.7 281.2 879.3 281.2C889.2 281.2 896.1 280 906 280C909 280 909.9 281.2 909.9 283C909.9 284.5 908.7 285.1 907.8 287.2C897.9 307.9 892.8 343.3 891.6 369.7C901.2 333.1 921.3 280 966.9 280C989.7 280 1003.5 297.4 999.9 319.3C997.8 330.4 990.9 340 978 341.5C976.5 341.5 975.6 340.6 976.5 339.4C977.4 338.2 976.8 336.1 976.2 334.9C970.5 324.4 961.8 320.2 951.3 319.6C938.4 319 927.6 326.5 918.6 338.2C919.2 377.8 949.5 444.1 988.8 462.7C990.6 463.6 996.6 466.3 998.4 465.7C1000.5 464.8 1000.8 466 1000.2 467.8C993.6 482.5 981 490 967.5 490C915.6 490 906.9 398.2 909.6 353.5C897.9 382 888.3 441.7 907.8 482.8C908.7 484.9 909.9 485.2 909.9 487C909.9 488.5 909 490 906 490C896.1 490 889.2 488.8 879.3 488.8C869.7 488.8 862.5 490 852.9 490C849.9 490 849 488.5 849 487C849 485.2 850.2 484.9 851.1 482.8C864.6 454.6 867.3 412 867.3 385C867.3 357.7 864.6 315.4 851.1 287.2C850.2 285.1 849 284.5 849 283C849 281.2 849.9 280 852.9 280Z" fill="#F6F1E3"/>
</g>
<g filter="url(#filter4_d_200_1221)">
<path fill-rule="evenodd" clip-rule="evenodd" d="M1315.64 290.472L1315.59 290.592C1303.19 317.064 1300.14 357.802 1300.14 385C1300.14 411.903 1303.19 452.937 1315.59 479.408L1315.64 479.528L1315.67 479.603C1315.72 479.659 1315.85 479.833 1316.18 480.282C1316.52 480.742 1317.16 481.649 1317.66 482.889C1318.19 484.217 1318.44 485.596 1318.44 487C1318.44 489.327 1317.71 492.439 1315.09 494.899C1312.52 497.307 1309.29 498 1306.54 498C1301.58 498 1295.47 497.696 1289.58 497.404L1289.31 497.39C1283.21 497.087 1277.35 496.8 1272.64 496.8C1268.08 496.8 1262.31 497.087 1256.2 497.39L1256.19 497.391C1250.21 497.688 1243.93 498 1238.74 498C1236.32 498 1233.31 497.593 1230.66 495.831C1228.42 494.333 1226.94 492.183 1226.3 489.78C1218.31 495.202 1208.69 498 1199.14 498C1187.43 498 1175.47 493.666 1166.44 484.359C1157.35 474.999 1151.84 461.246 1151.84 443.5C1151.84 411.4 1165.44 380.524 1184.84 353.957C1185.55 352.984 1186.27 352.016 1187 351.053C1179.66 351.553 1172.14 349.698 1166.14 345.2L1166.12 345.185L1166.1 345.169C1156.6 337.95 1151.84 327.79 1151.84 316.9C1151.84 294.244 1170.96 272 1202.14 272C1214.29 272 1224.51 273.014 1234.09 273.964C1234.8 274.036 1235.52 274.106 1236.22 274.176C1246.45 275.184 1256.11 276.033 1267.52 275.606C1273.59 275.347 1279.06 274.618 1284.81 273.851C1285.32 273.782 1285.84 273.713 1286.36 273.644C1292.61 272.817 1299.22 272 1306.54 272C1308.85 272 1312.16 272.418 1314.88 274.804C1317.87 277.419 1318.44 280.83 1318.44 283C1318.44 286.289 1316.93 288.517 1316.32 289.407C1315.81 290.151 1315.75 290.217 1315.72 290.291C1315.71 290.308 1315.7 290.326 1315.69 290.351L1315.64 290.472ZM1267.84 283.6C1255.03 284.081 1244.35 283.022 1233.35 281.93C1223.74 280.977 1213.88 280 1202.14 280C1175.14 280 1159.84 298.9 1159.84 316.9C1159.84 325.3 1163.44 333.1 1170.94 338.8C1176.11 342.675 1183.13 343.924 1189.67 342.658C1190.47 342.502 1191.27 342.309 1192.06 342.078C1193.07 341.78 1194.07 341.418 1195.03 340.994C1195.61 340.74 1196.18 340.463 1196.74 340.164C1196.84 340.11 1196.94 340.055 1197.04 340C1197.18 339.93 1197.31 339.855 1197.43 339.777C1198.76 338.932 1199.01 337.698 1198.33 337.166C1198 336.912 1197.47 336.818 1196.74 337C1196.31 337 1195.85 336.887 1195.39 336.701C1195.31 336.668 1195.23 336.633 1195.15 336.596C1194.39 336.25 1193.66 335.725 1193.14 335.2C1192.75 334.831 1192.38 334.44 1192.04 334.029C1191.95 333.918 1191.86 333.804 1191.77 333.69C1188.24 329.089 1187.9 322.243 1189.24 316.6C1194.04 299.5 1211.14 292.6 1227.64 293.5C1229.11 293.605 1230.69 293.728 1232.37 293.858C1236.35 294.167 1240.86 294.517 1245.52 294.757C1250.13 294.994 1254.89 295.123 1259.44 295C1255.61 297.47 1251.76 300.099 1247.93 302.875C1233.46 313.361 1219.19 325.949 1206.49 340.032C1204.53 342.202 1202.61 344.408 1200.73 346.646C1200.66 346.738 1200.58 346.83 1200.5 346.922C1200.35 347.101 1200.2 347.28 1200.05 347.46C1176.56 375.728 1159.84 409.218 1159.84 443.5C1159.84 475.6 1179.64 490 1199.14 490C1213.54 490 1227.64 482.5 1233.94 469C1237.06 462.082 1236.87 449.684 1232.24 442.183C1231.94 441.701 1231.63 441.239 1231.29 440.8C1231.13 440.585 1230.96 440.375 1230.79 440.171C1229.47 438.624 1227.9 437.414 1226.06 436.683C1225.98 436.655 1225.91 436.627 1225.84 436.6C1223.74 435.7 1222.54 437.2 1224.04 438.7C1224.26 438.922 1224.32 439.475 1224.33 440.112C1224.34 440.283 1224.34 440.46 1224.34 440.639C1224.34 440.692 1224.34 440.746 1224.34 440.8C1224.16 441.505 1223.9 442.151 1223.56 442.741C1223.31 443.177 1223.02 443.583 1222.7 443.958L1222.69 443.953C1222.69 443.955 1222.7 443.956 1222.7 443.958C1220.5 446.535 1216.82 447.7 1214.14 447.7C1204.24 447.4 1198.84 438.4 1197.04 428.5C1193.74 409.9 1203.64 390.7 1223.74 389.2C1249.24 387.4 1264.54 418.3 1262.74 440.5C1258.67 459.764 1251.9 476.328 1240.88 481.982C1240.47 482.195 1240.05 482.392 1239.62 482.573C1239.33 482.696 1239.04 482.812 1238.74 482.921C1238.25 483.102 1237.75 483.261 1237.24 483.4C1235.14 484 1233.94 484.9 1233.94 487C1233.94 488.8 1235.44 490 1238.74 490C1238.84 490 1238.94 490 1239.04 490C1239.07 490 1239.1 490 1239.13 489.999C1239.65 489.998 1240.19 489.993 1240.74 489.985C1241.39 489.976 1242.05 489.963 1242.73 489.946C1246.83 489.846 1251.4 489.619 1255.94 489.393C1261.93 489.095 1267.88 488.8 1272.64 488.8C1277.63 488.8 1283.76 489.105 1289.84 489.407C1295.83 489.705 1301.78 490 1306.54 490C1309.54 490 1310.44 488.5 1310.44 487C1310.44 485.949 1310.03 485.409 1309.51 484.724C1309.14 484.236 1308.71 483.674 1308.34 482.8C1295.14 454.6 1292.14 412 1292.14 385C1292.14 357.7 1295.14 315.4 1308.34 287.2C1308.72 286.308 1309.16 285.686 1309.53 285.151C1310.04 284.428 1310.44 283.863 1310.44 283C1310.44 281.2 1309.54 280 1306.54 280C1299.22 280 1292.6 280.883 1285.83 281.786C1280.11 282.549 1274.29 283.325 1267.84 283.6ZM1229.14 376.6C1240.02 376.373 1250.9 379.743 1259.84 385.934C1262.73 387.936 1265.42 390.234 1267.84 392.8V332.5C1267.84 323.457 1270.15 314.519 1274.26 306.491C1277.11 300.936 1280.82 295.817 1285.24 291.4C1279.35 294.134 1273.65 297.346 1268.19 300.87C1258.08 307.401 1248.83 315 1240.84 322.6C1226.94 336.007 1213.24 354.757 1204.68 374.938C1202.89 379.141 1201.33 383.407 1200.04 387.7C1203.31 384.929 1206.96 382.581 1210.93 380.767C1216.42 378.261 1222.53 376.774 1229.14 376.6ZM1215.48 370.611C1219.73 369.423 1224.22 368.727 1228.93 368.603L1228.95 368.602L1228.97 368.602C1239.75 368.377 1250.49 371.189 1259.84 376.495V332.5C1259.84 326.442 1260.74 320.45 1262.42 314.698C1256.68 319.054 1251.29 323.698 1246.37 328.376C1234.87 339.477 1223.54 354.414 1215.48 370.611ZM1239.28 491.142C1239.23 491.16 1239.21 491.168 1239.21 491.167C1239.21 491.166 1239.23 491.157 1239.28 491.142ZM1238.32 481.976C1238.32 481.975 1238.34 481.978 1238.37 481.985C1238.34 481.98 1238.32 481.977 1238.32 481.976ZM1254.8 439.366C1255.41 430.206 1252.54 418.948 1246.8 410.259C1241.02 401.502 1233.25 396.556 1224.32 397.179C1216.97 397.732 1211.7 401.397 1208.4 406.681C1204.98 412.138 1203.58 419.535 1204.91 427.089C1205.66 431.186 1207.07 434.535 1208.81 436.711C1210.35 438.652 1212.06 439.592 1214.23 439.698C1214.4 439.689 1214.69 439.655 1215.04 439.561C1215.24 439.51 1215.42 439.449 1215.6 439.38C1215.01 437.044 1215.24 434.279 1217.44 431.629C1221.03 427.325 1226.19 428.134 1228.75 429.146C1237.91 432.62 1241.86 441.956 1243.26 449.268C1244.66 456.571 1244.21 464.989 1241.62 471.393C1243.16 469.721 1244.71 467.536 1246.23 464.749C1249.8 458.22 1252.64 449.439 1254.8 439.366ZM1216.63 438.737C1216.63 438.737 1216.63 438.749 1216.61 438.772C1216.62 438.747 1216.63 438.736 1216.63 438.737ZM1203.7 331.236C1213.7 320.543 1224.53 310.758 1235.6 302.131C1234.21 302.027 1232.87 301.923 1231.6 301.824C1230 301.699 1228.5 301.582 1227.14 301.485C1212.63 300.713 1200.4 306.757 1196.99 318.607C1195.91 323.269 1196.75 327.108 1198.22 328.934C1199.3 329.016 1200.46 329.283 1201.63 329.851C1202.4 330.224 1203.09 330.692 1203.7 331.236Z" fill="#8E9BC7"/>
</g>
<g filter="url(#filter5_d_200_1221)">
<path fill-rule="evenodd" clip-rule="evenodd" d="M1145.2 285.4C1145.03 285.13 1144.86 284.853 1144.67 284.573C1143.69 283.078 1142.49 281.512 1141.08 280.656C1140.98 280.593 1140.87 280.534 1140.76 280.479C1140.18 280.177 1139.56 280 1138.9 280C1138 280 1137.4 280.6 1137.7 281.5C1138 282.7 1138 283.6 1137.1 284.8C1132.3 290.2 1125.1 292.9 1116.4 293.5C1101.93 294.578 1093.06 290.991 1083.81 287.245C1075.03 283.694 1065.9 280 1051.3 280C1027 280 1007.2 297.7 1007.2 329.8C1007.2 364 1035.1 381.1 1064.5 365.8C1076.5 359.5 1084.9 359.5 1090.6 364.6C1107.7 380.2 1111.6 416.2 1109.5 437.5C1104.7 484.6 1066 494.8 1051.9 462.7C1045.6 448.6 1044.1 422.2 1055.5 409C1059.56 404.722 1064.96 401.965 1070.32 403.138C1070.81 403.246 1071.3 403.386 1071.79 403.561C1073.08 404.022 1074.36 404.723 1075.6 405.7C1075.94 406.04 1076.28 406.476 1076.46 406.9C1076.59 407.224 1076.63 407.54 1076.5 407.8C1076.5 408.784 1077.41 409.122 1078.03 408.562C1078.22 408.393 1078.38 408.141 1078.48 407.8C1078.56 407.549 1078.6 407.25 1078.6 406.9C1078.6 405.524 1078.52 404.202 1078.37 402.934C1078.34 402.714 1078.31 402.495 1078.28 402.278C1078.21 401.799 1078.13 401.327 1078.04 400.864C1077.78 399.557 1077.44 398.314 1077.02 397.135C1072.89 385.546 1061.17 380.198 1047.7 381.4C1021 383.8 1007.2 405.7 1007.2 429.1C1007.2 458.2 1029.1 490 1080.4 490C1126.6 490 1150.9 456.1 1150.9 421.9C1150.9 397.9 1141.6 381.1 1126 369.1C1113.99 360.054 1099.38 355.47 1085.09 350.986C1069.05 345.953 1053.41 341.047 1042.3 330.1C1017.1 305.2 1036.9 271.9 1063.6 302.2C1066.72 305.756 1069.76 309.838 1072.87 314.031C1082.63 327.172 1093.2 341.398 1109.8 343.9C1135.6 347.5 1150.9 331.9 1150.9 307.3C1150.9 299.372 1149.18 291.731 1145.45 285.784C1145.37 285.655 1145.29 285.527 1145.2 285.4ZM1151.95 281.102C1151.17 279.852 1149.88 277.86 1148.16 276.143C1146.48 274.462 1143.35 272 1138.9 272C1136.8 272 1133.92 272.709 1131.78 275.206C1130.27 276.968 1129.65 279.004 1129.63 280.929C1126.63 283.424 1122.17 285.083 1115.85 285.519L1115.83 285.52L1115.81 285.522C1103.59 286.432 1096.22 283.633 1087.53 280.12C1087.26 280.011 1086.99 279.902 1086.71 279.791C1077.8 276.181 1067.47 272 1051.3 272C1037.16 272 1023.97 277.185 1014.33 287.363C1007.07 295.037 1002.15 305.195 1000.18 317.327C1000.1 317.98 1000.01 318.638 999.9 319.3C999.885 319.378 999.87 319.457 999.855 319.535C999.424 322.822 999.203 326.247 999.203 329.8C999.203 349.096 1007.16 364.777 1020.6 373.152C1023.64 375.051 1026.89 376.523 1030.29 377.564C1009.54 386.514 999.203 407.829 999.203 429.1C999.203 445.624 1005.42 462.975 1018.98 476.191C1032.61 489.477 1053.04 498 1080.4 498C1131.56 498 1158.9 459.957 1158.9 421.9C1158.9 395.426 1148.46 376.279 1130.88 362.759L1130.85 362.734L1130.82 362.709C1125.1 358.406 1118.88 355.035 1112.51 352.239C1125.64 353.256 1137.08 349.804 1145.46 342.046C1154.56 333.628 1158.9 321.202 1158.9 307.3C1158.9 298.162 1156.9 288.743 1151.95 281.102ZM1089.79 344.074C1089.11 343.862 1088.44 343.651 1087.77 343.441C1086.79 343.136 1085.83 342.834 1084.87 342.532C1069.51 337.693 1056.85 333.2 1047.92 324.407C1036.98 313.587 1037.89 303.255 1040.13 299.91C1041.02 298.589 1042.21 297.889 1044.33 298.194C1046.94 298.569 1051.59 300.672 1057.6 307.483C1060.5 310.788 1063.35 314.637 1066.55 318.936L1066.76 319.224C1069.97 323.534 1073.47 328.238 1077.32 332.613C1080.93 336.708 1085.03 340.738 1089.79 344.074ZM1069.1 411.095C1068.27 410.798 1067.52 410.819 1066.75 410.991C1065.26 411.328 1063.34 412.4 1061.44 414.368C1057.53 418.99 1055.3 426.668 1055.06 435.722C1054.83 444.733 1056.62 453.642 1059.21 459.436L1059.22 459.46L1059.23 459.483C1062.15 466.138 1066.04 469.929 1069.73 471.762C1073.37 473.568 1077.39 473.776 1081.43 472.291C1089.6 469.289 1099.33 458.426 1101.54 436.702C1102.51 426.83 1102.1 413.33 1099.42 400.552C1096.7 387.558 1091.93 376.659 1085.24 370.54C1083.37 368.879 1079.23 367.103 1068.22 372.883L1068.21 372.89L1068.2 372.897C1066.71 373.67 1065.22 374.375 1063.72 375.01C1067.54 376.177 1071.11 377.939 1074.29 380.356C1082.1 386.288 1086.6 395.499 1086.6 406.9C1086.6 410.11 1084.93 415.414 1079.23 416.635C1076.59 417.201 1073.72 416.547 1071.54 414.633C1070.37 413.598 1069.58 412.366 1069.1 411.095Z" fill="#8E9BC7"/>
</g>
<g filter="url(#filter6_d_200_1221)">
<path fill-rule="evenodd" clip-rule="evenodd" d="M915.088 290.503L915.017 290.652C912.83 295.225 910.877 300.643 909.154 306.597C921.904 287.548 940.467 272 966.9 272C980.416 272 991.936 277.217 999.47 286.345C1006.55 294.926 1009.57 306.306 1008.1 318.427C1007.99 319.141 1007.88 319.864 1007.78 320.596C1007.77 320.659 1007.77 320.723 1007.76 320.787C1007.76 320.799 1007.76 320.811 1007.75 320.823C1005.22 334.18 996.338 347.422 978.924 349.446L978.464 349.5H978C976.076 349.5 972.562 348.972 970.103 345.898C968.731 344.182 967.993 341.973 968.166 339.643C968.219 338.917 968.356 338.244 968.546 337.625C964.433 330.784 958.694 328.045 950.887 327.589C942.403 327.21 934.403 331.651 926.694 340.888C927.617 358.808 934.712 382.662 946.266 404.597C958.5 427.823 974.864 447.254 992.222 455.469L992.3 455.506L992.378 455.545C993.074 455.893 994.742 456.662 996.346 457.248C996.787 457.41 997.162 457.534 997.468 457.627C998.223 457.463 999.081 457.362 1000.01 457.403C1002.46 457.513 1005.3 458.669 1007.06 461.442C1008.51 463.713 1008.52 466.002 1008.45 467.118C1008.37 468.385 1008.06 469.504 1007.79 470.33L1007.66 470.711L1007.5 471.077C999.639 488.582 984.226 498 967.5 498C951.81 498 939.446 490.933 930.135 480.2C921.009 469.68 914.722 455.586 910.395 440.753C908.064 432.761 906.251 424.376 904.873 415.942C903.756 438.211 906.341 461.062 915.028 479.371L915.093 479.509L915.134 479.603C915.179 479.659 915.31 479.833 915.639 480.282C915.977 480.742 916.619 481.649 917.119 482.889C917.654 484.217 917.9 485.596 917.9 487C917.9 489.327 917.17 492.439 914.547 494.899C911.978 497.307 908.75 498 906 498C900.764 498 896.325 497.683 892.161 497.385L892.08 497.38C887.868 497.079 883.93 496.8 879.3 496.8C874.823 496.8 870.889 497.078 866.67 497.38L866.58 497.386C862.425 497.683 857.986 498 852.9 498C850.15 498 846.922 497.307 844.353 494.899C841.73 492.439 841 489.327 841 487C841 485.596 841.246 484.217 841.781 482.889C842.281 481.649 842.923 480.742 843.261 480.282C843.59 479.833 843.721 479.659 843.766 479.603L843.812 479.496L843.884 479.346C856.529 452.932 859.3 411.974 859.3 385C859.3 357.73 856.53 317.07 843.884 290.654L843.812 290.504L843.747 290.351C843.736 290.326 843.729 290.308 843.721 290.291C843.686 290.217 843.632 290.151 843.12 289.407C842.508 288.517 841 286.289 841 283C841 280.83 841.569 277.419 844.557 274.804C847.284 272.418 850.588 272 852.9 272C857.986 272 862.425 272.317 866.58 272.614L866.67 272.62C870.889 272.922 874.823 273.2 879.3 273.2C883.93 273.2 887.868 272.921 892.08 272.62L892.162 272.614C896.326 272.317 900.764 272 906 272C908.312 272 911.616 272.418 914.343 274.804C917.331 277.419 917.9 280.83 917.9 283C917.9 286.289 916.392 288.517 915.78 289.407C915.268 290.151 915.214 290.217 915.179 290.291C915.171 290.308 915.164 290.326 915.153 290.351L915.088 290.503ZM901.412 381.005C903.69 370.324 906.575 360.869 909.6 353.5C909.109 361.621 908.995 371.296 909.448 381.693C911.487 428.525 925.029 490 967.5 490C979.036 490 989.914 484.524 996.953 473.759C997.109 473.52 997.264 473.279 997.416 473.035C998.18 471.812 998.895 470.524 999.557 469.171C999.616 469.051 999.674 468.93 999.732 468.809C999.891 468.476 1000.05 468.14 1000.2 467.8C1000.8 466 1000.5 464.8 998.4 465.7C996.6 466.3 990.6 463.6 988.8 462.7C949.5 444.1 919.2 377.8 918.6 338.2C927.6 326.5 938.4 319 951.3 319.6C961.8 320.2 970.5 324.4 976.2 334.9C976.8 336.1 977.4 338.2 976.5 339.4C975.6 340.6 976.5 341.5 978 341.5C978.372 341.457 978.739 341.407 979.1 341.35C980.9 341.069 982.578 340.625 984.136 340.038C984.357 339.955 984.575 339.869 984.791 339.781C993.378 336.249 998.204 328.263 999.9 319.3C1003.5 297.4 989.7 280 966.9 280C934.619 280 915.118 306.61 903.074 335.14C898.104 346.911 894.404 359.009 891.6 369.7C892.11 358.47 893.327 345.612 895.318 332.949C898.007 315.844 902.111 299.095 907.8 287.2C908.182 286.308 908.619 285.686 908.995 285.151C909.503 284.428 909.9 283.863 909.9 283C909.9 281.2 909 280 906 280C901.05 280 896.85 280.3 892.65 280.6C888.45 280.9 884.25 281.2 879.3 281.2C874.5 281.2 870.3 280.9 866.1 280.6C861.9 280.3 857.7 280 852.9 280C849.9 280 849 281.2 849 283C849 283.863 849.397 284.428 849.905 285.151C850.281 285.686 850.718 286.308 851.1 287.2C864.6 315.4 867.3 357.7 867.3 385C867.3 412 864.6 454.6 851.1 482.8C850.726 483.674 850.299 484.236 849.929 484.724C849.409 485.409 849 485.949 849 487C849 488.5 849.9 490 852.9 490C857.7 490 861.9 489.7 866.1 489.4C870.3 489.1 874.5 488.8 879.3 488.8C884.25 488.8 888.45 489.1 892.65 489.4C896.85 489.7 901.05 490 906 490C909 490 909.9 488.5 909.9 487C909.9 485.949 909.491 485.409 908.971 484.724C908.601 484.236 908.174 483.674 907.8 482.8C893.342 452.327 894.881 411.63 901.412 381.005Z" fill="#8E9BC7"/>
</g>
<path d="M-192 -203C-165.833 -102.167 -130 408 61.5 446.5C262.924 486.995 351.667 358 372 290C383.662 251 373.5 234.5 303.5 322.5C194.246 459.848 384 580 251.5 727.5C138.5 870 36.5 1041 372 1154.5C512.167 1220.5 1720.22 1358.03 1391.5 1236C978 1082.5 1554 725.5 1652.5 732.5C1828.69 745.021 1910.58 1392.5 2111.08 1305.5C2278.68 1232.77 2270 834.833 2252 796C2139.83 638.5 1875.7 305.6 1912.5 180C1929.67 113 2030.2 -62.3 2065 -3.5C2077.72 18 1993.64 163.909 1836.5 194C1648.5 230 1336.5 -105.5 1113.5 -124" stroke="#F6F1E3" stroke-width="65"/>
<path d="M-192 -203C-165.833 -102.167 -130 408 61.5 446.5C262.924 486.995 351.667 358 372 290C383.662 251 373.5 234.5 303.5 322.5C194.246 459.848 384 580 251.5 727.5C138.5 870 36.5 1041 372 1154.5C512.167 1220.5 1720.22 1358.03 1391.5 1236C978 1082.5 1554 725.5 1652.5 732.5C1828.69 745.021 1910.58 1392.5 2111.08 1305.5C2278.68 1232.77 2270 834.833 2252 796C2139.83 638.5 1875.7 305.6 1912.5 180C1929.67 113 2030.2 -62.3 2065 -3.5C2077.72 18 1993.64 163.909 1836.5 194C1648.5 230 1336.5 -105.5 1113.5 -124" stroke="#1D60B9" stroke-width="20"/>
<path d="M700.196 247.582C698.291 247.972 696.943 249.677 697.002 251.621C697.061 253.565 698.509 255.185 700.434 255.46C718.513 258.043 728.359 266.367 734.049 275.438C739.871 284.719 741.543 295.087 742.54 302.066C742.821 304.03 744.499 305.492 746.483 305.5C748.467 305.508 750.158 304.061 750.455 302.099C753.405 282.626 758.203 272.883 764.723 267.074C771.406 261.121 780.465 258.693 793.953 255.385C795.777 254.937 797.044 253.282 796.999 251.404C796.954 249.527 795.609 247.934 793.766 247.574C773.75 243.668 765.105 237.758 760.328 230.594C757.858 226.889 756.245 222.592 754.805 217.446C754.087 214.88 753.43 212.171 752.719 209.244L752.713 209.22C752.006 206.305 751.25 203.194 750.357 199.941C749.872 198.173 748.246 196.961 746.413 197.001C744.579 197.041 743.008 198.323 742.6 200.111C742.084 202.372 741.616 204.507 741.172 206.535C740.182 211.052 739.308 215.038 738.281 218.711C736.814 223.953 735.138 228.132 732.669 231.632C727.864 238.444 719.352 243.652 700.196 247.582Z" fill="#F6F1E3" stroke="#8E9BC7" stroke-width="8" stroke-linejoin="round"/>
<g filter="url(#filter7_i_200_1221)">
<path d="M746.5 201C740 229.5 740 243.5 701 251.5C739.5 257 744.5 287.5 746.5 301.5C752.5 261.9 766.5 258 793 251.5C752 243.5 753.5 226.5 746.5 201Z" fill="#F6F1E3"/>
</g>
<path d="M792.402 191.19C790.971 191.481 789.958 192.76 790.001 194.219C790.045 195.679 791.133 196.895 792.579 197.1C801.753 198.399 806.653 202.557 809.476 207.019C812.397 211.638 813.251 216.823 813.77 220.428C813.982 221.899 815.24 222.994 816.726 223C818.213 223.006 819.48 221.923 819.705 220.453C821.232 210.458 823.686 205.682 826.845 202.89C830.131 199.987 834.617 198.77 841.709 197.044C843.079 196.711 844.033 195.468 843.999 194.058C843.966 192.648 842.955 191.452 841.57 191.184C831.231 189.183 827.002 186.2 824.707 182.787C823.499 180.99 822.69 178.877 821.95 176.252C821.58 174.94 821.24 173.552 820.867 172.031L820.867 172.028C820.498 170.521 820.101 168.899 819.63 167.2C819.264 165.876 818.046 164.971 816.673 165.001C815.3 165.031 814.123 165.989 813.815 167.328C813.541 168.52 813.294 169.637 813.061 170.691C812.548 173.012 812.102 175.033 811.573 176.907C810.822 179.571 809.983 181.617 808.784 183.303C806.481 186.54 802.323 189.171 792.402 191.19Z" fill="#F6F1E3" stroke="#8E9BC7" stroke-width="6" stroke-linejoin="round"/>
<g filter="url(#filter8_i_200_1221)">
<path d="M816.739 168C813.348 182.746 813.348 189.99 793 194.129C813.087 196.975 815.696 212.756 816.739 220C819.87 199.51 827.174 197.493 841 194.129C819.609 189.99 820.391 181.194 816.739 168Z" fill="#F6F1E3"/>
</g>
</g>
<defs>
<filter id="filter0_i_200_1221" x="0" y="0" width="2161" height="772" filterUnits="userSpaceOnUse" color-interpolation-filters="sRGB">
<feFlood flood-opacity="0" result="BackgroundImageFix"/>
<feBlend mode="normal" in="SourceGraphic" in2="BackgroundImageFix" result="shape"/>
<feColorMatrix in="SourceAlpha" type="matrix" values="0 0 0 0 0 0 0 0 0 0 0 0 0 0 0 0 0 0 127 0" result="hardAlpha"/>
<feMorphology radius="3" operator="erode" in="SourceAlpha" result="effect1_innerShadow_200_1221"/>
<feOffset dx="1" dy="1"/>
<feGaussianBlur stdDeviation="1"/>
<feComposite in2="hardAlpha" operator="arithmetic" k2="-1" k3="1"/>
<feColorMatrix type="matrix" values="0 0 0 0 0 0 0 0 0 0 0 0 0 0 0 0 0 0 0.25 0"/>
<feBlend mode="normal" in2="shape" result="effect1_innerShadow_200_1221"/>
</filter>
<filter id="filter1_d_200_1221" x="1155.84" y="280" width="158.6" height="218" filterUnits="userSpaceOnUse" color-interpolation-filters="sRGB">
<feFlood flood-opacity="0" result="BackgroundImageFix"/>
<feColorMatrix in="SourceAlpha" type="matrix" values="0 0 0 0 0 0 0 0 0 0 0 0 0 0 0 0 0 0 127 0" result="hardAlpha"/>
<feOffset dy="4"/>
<feGaussianBlur stdDeviation="2"/>
<feComposite in2="hardAlpha" operator="out"/>
<feColorMatrix type="matrix" values="0 0 0 0 0 0 0 0 0 0 0 0 0 0 0 0 0 0 0.25 0"/>
<feBlend mode="normal" in2="BackgroundImageFix" result="effect1_dropShadow_200_1221"/>
<feBlend mode="normal" in="SourceGraphic" in2="effect1_dropShadow_200_1221" result="shape"/>
</filter>
<filter id="filter2_d_200_1221" x="1003.2" y="280" width="151.7" height="218" filterUnits="userSpaceOnUse" color-interpolation-filters="sRGB">
<feFlood flood-opacity="0" result="BackgroundImageFix"/>
<feColorMatrix in="SourceAlpha" type="matrix" values="0 0 0 0 0 0 0 0 0 0 0 0 0 0 0 0 0 0 127 0" result="hardAlpha"/>
<feOffset dy="4"/>
<feGaussianBlur stdDeviation="2"/>
<feComposite in2="hardAlpha" operator="out"/>
<feColorMatrix type="matrix" values="0 0 0 0 0 0 0 0 0 0 0 0 0 0 0 0 0 0 0.25 0"/>
<feBlend mode="normal" in2="BackgroundImageFix" result="effect1_dropShadow_200_1221"/>
<feBlend mode="normal" in="SourceGraphic" in2="effect1_dropShadow_200_1221" result="shape"/>
</filter>
<filter id="filter3_d_200_1221" x="845" y="280" width="159.473" height="218" filterUnits="userSpaceOnUse" color-interpolation-filters="sRGB">
<feFlood flood-opacity="0" result="BackgroundImageFix"/>
<feColorMatrix in="SourceAlpha" type="matrix" values="0 0 0 0 0 0 0 0 0 0 0 0 0 0 0 0 0 0 127 0" result="hardAlpha"/>
<feOffset dy="4"/>
<feGaussianBlur stdDeviation="2"/>
<feComposite in2="hardAlpha" operator="out"/>
<feColorMatrix type="matrix" values="0 0 0 0 0 0 0 0 0 0 0 0 0 0 0 0 0 0 0.25 0"/>
<feBlend mode="normal" in2="BackgroundImageFix" result="effect1_dropShadow_200_1221"/>
<feBlend mode="normal" in="SourceGraphic" in2="effect1_dropShadow_200_1221" result="shape"/>
</filter>
<filter id="filter4_d_200_1221" x="1147.84" y="272" width="174.6" height="234" filterUnits="userSpaceOnUse" color-interpolation-filters="sRGB">
<feFlood flood-opacity="0" result="BackgroundImageFix"/>
<feColorMatrix in="SourceAlpha" type="matrix" values="0 0 0 0 0 0 0 0 0 0 0 0 0 0 0 0 0 0 127 0" result="hardAlpha"/>
<feOffset dy="4"/>
<feGaussianBlur stdDeviation="2"/>
<feComposite in2="hardAlpha" operator="out"/>
<feColorMatrix type="matrix" values="0 0 0 0 0 0 0 0 0 0 0 0 0 0 0 0 0 0 0.25 0"/>
<feBlend mode="normal" in2="BackgroundImageFix" result="effect1_dropShadow_200_1221"/>
<feBlend mode="normal" in="SourceGraphic" in2="effect1_dropShadow_200_1221" result="shape"/>
</filter>
<filter id="filter5_d_200_1221" x="995.203" y="272" width="167.7" height="234" filterUnits="userSpaceOnUse" color-interpolation-filters="sRGB">
<feFlood flood-opacity="0" result="BackgroundImageFix"/>
<feColorMatrix in="SourceAlpha" type="matrix" values="0 0 0 0 0 0 0 0 0 0 0 0 0 0 0 0 0 0 127 0" result="hardAlpha"/>
<feOffset dy="4"/>
<feGaussianBlur stdDeviation="2"/>
<feComposite in2="hardAlpha" operator="out"/>
<feColorMatrix type="matrix" values="0 0 0 0 0 0 0 0 0 0 0 0 0 0 0 0 0 0 0.25 0"/>
<feBlend mode="normal" in2="BackgroundImageFix" result="effect1_dropShadow_200_1221"/>
<feBlend mode="normal" in="SourceGraphic" in2="effect1_dropShadow_200_1221" result="shape"/>
</filter>
<filter id="filter6_d_200_1221" x="837" y="272" width="175.473" height="234" filterUnits="userSpaceOnUse" color-interpolation-filters="sRGB">
<feFlood flood-opacity="0" result="BackgroundImageFix"/>
<feColorMatrix in="SourceAlpha" type="matrix" values="0 0 0 0 0 0 0 0 0 0 0 0 0 0 0 0 0 0 127 0" result="hardAlpha"/>
<feOffset dy="4"/>
<feGaussianBlur stdDeviation="2"/>
<feComposite in2="hardAlpha" operator="out"/>
<feColorMatrix type="matrix" values="0 0 0 0 0 0 0 0 0 0 0 0 0 0 0 0 0 0 0.25 0"/>
<feBlend mode="normal" in2="BackgroundImageFix" result="effect1_dropShadow_200_1221"/>
<feBlend mode="normal" in="SourceGraphic" in2="effect1_dropShadow_200_1221" result="shape"/>
</filter>
<filter id="filter7_i_200_1221" x="700" y="201" width="93" height="102.5" filterUnits="userSpaceOnUse" color-interpolation-filters="sRGB">
<feFlood flood-opacity="0" result="BackgroundImageFix"/>
<feBlend mode="normal" in="SourceGraphic" in2="BackgroundImageFix" result="shape"/>
<feColorMatrix in="SourceAlpha" type="matrix" values="0 0 0 0 0 0 0 0 0 0 0 0 0 0 0 0 0 0 127 0" result="hardAlpha"/>
<feOffset dx="-1" dy="2"/>
<feGaussianBlur stdDeviation="2"/>
<feComposite in2="hardAlpha" operator="arithmetic" k2="-1" k3="1"/>
<feColorMatrix type="matrix" values="0 0 0 0 0 0 0 0 0 0 0 0 0 0 0 0 0 0 0.25 0"/>
<feBlend mode="normal" in2="shape" result="effect1_innerShadow_200_1221"/>
</filter>
<filter id="filter8_i_200_1221" x="792" y="168" width="49" height="53" filterUnits="userSpaceOnUse" color-interpolation-filters="sRGB">
<feFlood flood-opacity="0" result="BackgroundImageFix"/>
<feBlend mode="normal" in="SourceGraphic" in2="BackgroundImageFix" result="shape"/>
<feColorMatrix in="SourceAlpha" type="matrix" values="0 0 0 0 0 0 0 0 0 0 0 0 0 0 0 0 0 0 127 0" result="hardAlpha"/>
<feOffset dx="-1" dy="1"/>
<feGaussianBlur stdDeviation="0.5"/>
<feComposite in2="hardAlpha" operator="arithmetic" k2="-1" k3="1"/>
<feColorMatrix type="matrix" values="0 0 0 0 0 0 0 0 0 0 0 0 0 0 0 0 0 0 0.25 0"/>
<feBlend mode="normal" in2="shape" result="effect1_innerShadow_200_1221"/>
</filter>
<clipPath id="clip0_200_1221">
<rect width="2160" height="771" fill="white"/>
</clipPath>
</defs>
</svg>
