<svg width="709" height="299" viewBox="0 0 709 299" fill="none" xmlns="http://www.w3.org/2000/svg">
<g filter="url(#filter0_d_197_784)">
<path d="M598.477 10.6558C602.296 10.6558 603.442 12.1834 603.442 14.475C603.442 16.3846 601.915 17.1484 600.769 19.8218C583.964 55.7224 580.145 109.573 580.145 144.328C580.145 178.701 583.964 232.933 600.769 268.834C601.915 271.507 603.442 271.889 603.442 274.181C603.442 276.09 602.296 278 598.477 278C586.256 278 567.924 276.472 555.32 276.472C543.099 276.472 524.767 278 512.163 278C507.962 278 506.053 276.472 506.053 274.181C506.053 271.507 507.58 270.362 510.254 269.598C527.058 265.015 536.988 242.099 542.717 214.983C545.008 186.721 525.53 147.383 493.067 149.675C467.479 151.584 454.875 176.027 459.076 199.706C461.368 212.31 468.242 223.767 480.846 224.149C485.429 224.149 492.303 221.476 493.831 215.365C493.831 214.219 493.831 213.073 493.449 212.692C491.54 210.782 493.067 208.872 495.741 210.018C509.108 214.983 511.399 239.426 506.053 251.266C498.032 268.452 480.082 278 461.75 278C436.925 278 411.718 259.668 411.718 218.802C411.718 142.8 476.263 69.8534 538.516 29.7518C524.385 30.1337 508.726 28.606 498.032 27.8422C477.027 26.6964 455.257 35.4806 449.146 57.25C447.237 65.2704 448.001 75.2003 454.111 80.9291C455.257 82.0749 457.167 83.2206 458.694 83.2206C461.75 82.4568 462.132 85.5121 459.076 87.0398C448.765 92.7686 435.015 92.3867 425.849 85.5121C416.301 78.2557 411.718 68.3257 411.718 57.632C411.718 34.7167 431.196 10.6558 465.569 10.6558C497.65 10.6558 518.656 16.3846 549.21 15.2388C567.16 14.475 581.291 10.6558 598.477 10.6558ZM462.896 147.765C472.825 139.363 485.429 134.016 499.942 133.634C518.274 133.252 536.606 140.891 549.21 154.258C549.21 150.82 549.21 147.383 549.21 144.328V77.4918C549.21 58.0139 557.612 38.9179 571.361 25.1687C549.973 35.0987 530.495 49.9936 514.837 64.8884C493.449 85.5121 472.444 116.066 462.896 147.765Z" fill="#F6F1E3"/>
</g>
<g filter="url(#filter1_d_197_784)">
<path d="M383.537 12.5654C383.155 11.4196 383.919 10.6558 385.064 10.6558C388.502 10.6558 391.175 14.475 393.085 17.5303C398.05 25.1687 400.341 35.0987 400.341 45.4105C400.341 76.728 380.863 96.5878 348.018 92.0048C320.138 87.8037 305.625 57.632 289.202 38.9179C255.211 0.34391 230.005 42.7371 262.086 74.4364C288.82 100.789 336.179 99.6432 368.642 124.086C388.502 139.363 400.341 160.75 400.341 191.304C400.341 234.843 369.406 278 310.59 278C245.282 278 217.401 237.516 217.401 200.47C217.401 170.68 234.97 142.8 268.961 139.745C290.348 137.835 308.298 148.911 308.298 172.208C308.298 175.263 305.625 175.263 305.625 173.354C306.007 172.59 305.243 171.444 304.479 170.68C295.695 163.806 285.765 167.625 278.891 174.881C264.378 191.686 266.287 225.295 274.307 243.245C292.258 284.111 341.525 271.125 347.636 211.164C350.31 184.048 345.345 138.217 323.575 118.357C316.319 111.865 305.625 111.865 290.348 119.885C252.92 139.363 217.401 117.593 217.401 74.0545C217.401 33.1891 242.608 10.6558 273.544 10.6558C311.736 10.6558 320.52 30.5156 356.42 27.8422C367.496 27.0783 376.662 23.6411 382.773 16.7665C383.919 15.2388 383.919 14.093 383.537 12.5654Z" fill="#F6F1E3"/>
</g>
<g filter="url(#filter2_d_197_784)">
<path d="M20.963 10.6558C33.1845 10.6558 42.3505 12.1834 54.572 12.1834C67.1754 12.1834 75.9595 10.6558 88.5629 10.6558C92.3821 10.6558 93.5279 12.1834 93.5279 14.475C93.5279 16.3846 92.0002 17.1484 90.8544 19.8218C78.251 46.1743 71.7584 91.2409 70.2307 124.85C82.4522 78.2557 108.041 10.6558 166.093 10.6558C195.119 10.6558 212.687 32.8071 208.104 60.6873C205.43 74.8184 196.646 87.0398 180.224 88.9494C178.314 88.9494 177.168 87.8037 178.314 86.276C179.46 84.7483 178.696 82.0749 177.932 80.5472C170.676 67.18 159.6 61.8331 146.233 61.0692C129.81 60.3054 116.061 69.8534 104.604 84.7483C105.367 135.162 143.941 219.566 193.973 243.245C196.264 244.391 203.903 247.828 206.194 247.064C208.868 245.919 209.25 247.446 208.486 249.738C200.084 268.452 184.043 278 166.857 278C100.784 278 89.7087 161.132 93.1459 104.226C78.251 140.509 66.0296 216.511 90.8544 268.834C92.0002 271.507 93.5279 271.889 93.5279 274.181C93.5279 276.09 92.3821 278 88.5629 278C75.9595 278 67.1754 276.472 54.572 276.472C42.3505 276.472 33.1845 278 20.963 278C17.1438 278 15.998 276.09 15.998 274.181C15.998 271.889 17.5257 271.507 18.6715 268.834C35.8579 232.933 39.2952 178.701 39.2952 144.328C39.2952 109.573 35.8579 55.7224 18.6715 19.8218C17.5257 17.1484 15.998 16.3846 15.998 14.475C15.998 12.1834 17.1438 10.6558 20.963 10.6558Z" fill="#F6F1E3"/>
</g>
<g filter="url(#filter3_d_197_784)">
<path fill-rule="evenodd" clip-rule="evenodd" d="M610.064 23.9877L609.993 24.1394C594.217 57.8413 590.33 109.702 590.33 144.328C590.33 178.577 594.219 230.817 609.993 264.516L610.064 264.668L610.105 264.764C610.162 264.835 610.329 265.057 610.748 265.628C611.178 266.214 611.995 267.368 612.632 268.948C613.313 270.638 613.627 272.393 613.627 274.181C613.627 277.143 612.698 281.105 609.358 284.236C606.087 287.302 601.979 288.184 598.477 288.184C592.158 288.184 584.382 287.798 576.891 287.426L576.537 287.408C568.774 287.022 561.316 286.657 555.32 286.657C549.518 286.657 542.164 287.022 534.39 287.408L534.375 287.409C526.77 287.787 518.766 288.184 512.163 288.184C509.081 288.184 505.248 287.667 501.883 285.424C499.022 283.516 497.139 280.779 496.326 277.719C486.157 284.623 473.905 288.184 461.75 288.184C446.845 288.184 431.614 282.666 420.116 270.818C408.552 258.902 401.534 241.394 401.534 218.802C401.534 177.937 418.846 138.63 443.547 104.808C444.452 103.569 445.367 102.337 446.292 101.111C436.952 101.748 427.374 99.3863 419.739 93.6597L419.713 93.6403L419.687 93.6207C407.594 84.4304 401.534 71.4954 401.534 57.6319C401.534 28.7896 425.879 0.471191 465.569 0.471191C481.042 0.471191 494.049 1.76212 506.24 2.97208C507.152 3.06252 508.058 3.1525 508.961 3.24146C521.979 4.52423 534.276 5.60529 548.802 5.06235C556.525 4.73234 563.491 3.80371 570.812 2.82794C571.469 2.74039 572.128 2.65246 572.792 2.56455C580.743 1.51075 589.154 0.471191 598.477 0.471191C601.421 0.471191 605.627 1.00396 609.098 4.04136C612.902 7.3699 613.627 11.7125 613.627 14.4749C613.627 18.6623 611.707 21.4988 610.928 22.6318C610.276 23.5792 610.207 23.6626 610.163 23.7574C610.153 23.7789 610.144 23.8009 610.13 23.8337L610.064 23.9877ZM456.521 88.3053C457.259 87.9816 457.985 87.6292 458.694 87.2483C458.822 87.1797 458.95 87.1102 459.076 87.0398C459.255 86.9502 459.423 86.8554 459.578 86.7565C461.272 85.6797 461.585 84.109 460.717 83.4314C460.303 83.1088 459.622 82.9887 458.694 83.2206C458.153 83.2206 457.563 83.0765 456.976 82.8394C456.874 82.798 456.771 82.7537 456.669 82.7069C455.708 82.266 454.78 81.5975 454.111 80.9291C453.61 80.4594 453.145 79.9616 452.715 79.4388C452.598 79.2965 452.483 79.1524 452.371 79.0065C447.87 73.1498 447.436 64.4339 449.146 57.25C455.257 35.4805 477.027 26.6964 498.032 27.8421C499.898 27.9754 501.915 28.132 504.049 28.2975C509.126 28.6916 514.864 29.1369 520.799 29.4421C526.663 29.7437 532.718 29.9085 538.516 29.7517C533.634 32.8964 528.738 36.2429 523.861 39.7771C505.437 53.1265 487.272 69.1525 471.103 87.081C468.611 89.8434 466.167 92.651 463.777 95.5009C463.679 95.618 463.581 95.7352 463.483 95.8524C463.292 96.0802 463.102 96.3082 462.912 96.5365C433.001 132.524 411.718 175.159 411.718 218.802C411.718 259.668 436.925 278 461.75 278C480.082 278 498.032 268.452 506.053 251.266C510.03 242.458 509.781 226.676 503.889 217.126C503.51 216.512 503.108 215.924 502.682 215.365C502.473 215.091 502.259 214.824 502.038 214.564C500.368 212.595 498.367 211.055 496.017 210.124C495.925 210.088 495.833 210.052 495.741 210.018C493.067 208.872 491.54 210.782 493.449 212.692C493.732 212.975 493.806 213.678 493.824 214.489C493.83 214.707 493.831 214.932 493.831 215.16C493.831 215.228 493.831 215.296 493.831 215.365C493.607 216.262 493.267 217.085 492.837 217.836C492.519 218.391 492.151 218.907 491.743 219.385L491.729 219.379C491.733 219.381 491.738 219.383 491.743 219.385C488.943 222.666 484.259 224.149 480.846 224.149C468.242 223.767 461.368 212.31 459.076 199.706C454.875 176.027 467.479 151.584 493.067 149.675C525.53 147.383 545.008 186.721 542.717 214.983C537.536 239.507 528.918 260.595 514.887 267.793C514.36 268.063 513.826 268.314 513.283 268.545C512.913 268.702 512.54 268.85 512.163 268.988C511.537 269.218 510.9 269.421 510.254 269.598C507.58 270.362 506.053 271.507 506.053 274.181C506.053 276.472 507.962 278 512.163 278C512.29 278 512.417 278 512.545 277.999C512.581 277.999 512.618 277.999 512.654 277.999C513.326 277.997 514.013 277.991 514.714 277.981C515.539 277.969 516.382 277.953 517.241 277.932C522.461 277.804 528.278 277.515 534.062 277.227C541.689 276.848 549.257 276.472 555.32 276.472C561.67 276.472 569.475 276.86 577.219 277.245C584.845 277.624 592.413 278 598.477 278C602.296 278 603.442 276.09 603.442 274.181C603.442 272.842 602.921 272.155 602.259 271.283C601.788 270.662 601.245 269.946 600.769 268.834C583.964 232.933 580.145 178.701 580.145 144.328C580.145 109.573 583.964 55.7223 600.769 19.8218C601.256 18.6859 601.811 17.8947 602.29 17.2139C602.937 16.2924 603.442 15.5731 603.442 14.4749C603.442 12.1834 602.296 10.6557 598.477 10.6557C589.154 10.6557 580.73 11.7797 572.107 12.93C564.835 13.9003 557.422 14.8893 549.21 15.2388C532.896 15.8505 519.304 14.5025 505.295 13.113C493.067 11.9001 480.521 10.6557 465.569 10.6557C431.196 10.6557 411.718 34.7167 411.718 57.6319C411.718 68.3257 416.301 78.2556 425.849 85.5121C432.426 90.4448 441.363 92.0348 449.696 90.4231C450.718 90.2254 451.732 89.9794 452.731 89.6856C454.022 89.3055 455.29 88.8452 456.521 88.3053ZM549.661 37.2241C536.79 45.5384 525.008 55.2134 514.837 64.8884C497.136 81.9566 479.698 105.826 468.799 131.518C466.528 136.869 464.542 142.3 462.896 147.765C467.065 144.237 471.705 141.248 476.76 138.939C483.745 135.748 491.522 133.856 499.942 133.634C513.793 133.345 527.645 137.636 539.025 145.516C542.706 148.066 546.129 150.991 549.21 154.258V77.4918C549.21 65.9798 552.145 54.6012 557.384 44.381C561.009 37.309 565.738 30.7917 571.361 25.1687C563.866 28.6486 556.605 32.7383 549.661 37.2241ZM542.304 54.8281C534.997 60.3749 528.143 66.2886 521.879 72.2456C507.23 86.3779 492.818 105.392 482.549 126.01C487.956 124.497 493.68 123.611 499.674 123.453L499.702 123.452L499.73 123.452C513.446 123.166 527.126 126.746 539.025 133.501V77.4918C539.025 69.7792 540.168 62.1507 542.304 54.8281ZM512.847 279.453C512.793 279.477 512.763 279.487 512.762 279.486C512.762 279.485 512.788 279.473 512.847 279.453ZM511.628 267.785C511.629 267.784 511.654 267.787 511.699 267.796C511.649 267.79 511.626 267.786 511.628 267.785ZM532.612 213.539C533.391 201.878 529.734 187.545 522.427 176.485C515.062 165.335 505.172 159.037 493.802 159.833C484.447 160.538 477.742 165.203 473.535 171.929C469.189 178.875 467.4 188.289 469.1 197.903C470.052 203.123 471.844 207.388 474.055 210.159C476.027 212.631 478.194 213.827 480.958 213.962C481.181 213.951 481.546 213.907 481.997 213.788C482.243 213.723 482.48 213.645 482.701 213.558C481.956 210.583 482.24 207.064 485.052 203.689C489.618 198.21 496.186 199.24 499.441 200.529C511.112 204.951 516.131 216.836 517.917 226.145C519.7 235.442 519.131 246.159 515.825 254.312C517.792 252.183 519.763 249.402 521.703 245.854C526.248 237.542 529.861 226.363 532.612 213.539ZM484.018 212.738C484.02 212.739 484.013 212.754 483.989 212.783C484.004 212.752 484.016 212.738 484.018 212.738ZM467.559 75.8829C480.288 62.2701 494.073 49.8126 508.172 38.8298C506.4 38.6973 504.695 38.5646 503.076 38.4385C501.035 38.2797 499.129 38.1314 497.395 38.0071C478.919 37.0247 463.358 44.7196 459.008 59.8057C457.643 65.7404 458.708 70.6276 460.574 72.9524C461.953 73.0564 463.434 73.3965 464.922 74.1192C465.9 74.5939 466.783 75.1901 467.559 75.8829Z" fill="#8E9BC7"/>
</g>
<g filter="url(#filter4_d_197_784)">
<path fill-rule="evenodd" clip-rule="evenodd" d="M393.085 17.5303C392.87 17.1868 392.646 16.8337 392.412 16.4774C391.162 14.5739 389.636 12.5807 387.835 11.4909C387.703 11.411 387.569 11.3359 387.434 11.2662C386.689 10.8811 385.899 10.6557 385.064 10.6557C383.919 10.6557 383.155 11.4196 383.537 12.5653C383.919 14.093 383.919 15.2388 382.773 16.7665C376.662 23.641 367.496 27.0783 356.42 27.8421C337.99 29.2146 326.706 24.6483 314.921 19.8792C303.75 15.3586 292.129 10.6557 273.544 10.6557C242.608 10.6557 217.401 33.189 217.401 74.0545C217.401 117.593 252.92 139.363 290.348 119.885C305.625 111.865 316.319 111.865 323.575 118.357C345.345 138.217 350.31 184.048 347.636 211.164C341.525 271.125 292.258 284.111 274.307 243.245C266.287 225.295 264.378 191.686 278.89 174.881C284.05 169.435 290.931 165.925 297.756 167.419C298.38 167.556 299.004 167.734 299.626 167.957C301.264 168.544 302.891 169.437 304.479 170.68C304.912 171.113 305.345 171.669 305.569 172.208C305.741 172.62 305.79 173.023 305.625 173.354C305.625 174.606 306.774 175.037 307.566 174.324C307.805 174.108 308.012 173.788 308.144 173.354C308.241 173.035 308.298 172.654 308.298 172.208C308.298 170.456 308.197 168.773 308 167.16C307.966 166.879 307.929 166.6 307.889 166.324C307.8 165.714 307.698 165.114 307.583 164.524C307.256 162.86 306.822 161.277 306.287 159.777C301.031 145.023 286.099 138.215 268.961 139.745C234.97 142.8 217.401 170.68 217.401 200.47C217.401 237.516 245.282 278 310.59 278C369.406 278 400.341 234.843 400.341 191.304C400.341 160.75 388.502 139.363 368.642 124.086C353.347 112.57 334.746 106.734 316.553 101.026C296.132 94.6189 276.225 88.3731 262.086 74.4364C230.005 42.737 255.211 0.343884 289.202 38.9178C293.175 43.4447 297.036 48.6419 301.001 53.9798C313.428 70.709 326.882 88.8199 348.018 92.0048C380.863 96.5878 400.341 76.7279 400.341 45.4105C400.341 35.3171 398.146 25.5897 393.397 18.0189C393.294 17.855 393.19 17.6922 393.085 17.5303ZM401.675 12.0588C400.679 10.4676 399.035 7.93159 396.849 5.74569C394.709 3.60609 390.725 0.471191 385.064 0.471191C382.391 0.471191 378.72 1.37358 375.995 4.55289C374.073 6.79541 373.287 9.38757 373.259 11.838C369.442 15.0149 363.76 17.1272 355.72 17.6817L355.692 17.6837L355.664 17.6857C340.108 18.8442 330.721 15.2805 319.658 10.809C319.314 10.6702 318.969 10.5305 318.623 10.3902C307.27 5.79398 294.123 0.471191 273.544 0.471191C255.542 0.471191 238.742 7.07165 226.476 20.0289C217.227 29.7989 210.974 42.7307 208.459 58.1752C208.361 59.007 208.243 59.8446 208.104 60.6873C208.085 60.787 208.066 60.8866 208.046 60.9862C207.498 65.1715 207.217 69.5317 207.217 74.0545C207.217 98.6197 217.346 118.583 234.452 129.244C238.331 131.661 242.465 133.536 246.788 134.862C220.379 146.255 207.217 173.391 207.217 200.47C207.217 221.507 215.135 243.595 232.396 260.42C249.747 277.333 275.755 288.184 310.59 288.184C375.72 288.184 410.526 239.753 410.526 191.304C410.526 157.601 397.227 133.226 374.851 116.014L374.81 115.982L374.768 115.95C367.493 110.472 359.569 106.181 351.47 102.62C368.181 103.915 382.744 99.5204 393.414 89.6448C404.994 78.9278 410.526 63.1085 410.526 45.4105C410.526 33.7778 407.97 21.7866 401.675 12.0588ZM322.535 92.2264C316.481 87.9794 311.263 82.8487 306.671 77.635C301.766 72.0665 297.301 66.0777 293.225 60.5908L292.951 60.2228C288.886 54.7507 285.246 49.8512 281.555 45.6441C273.912 36.9727 267.987 34.2949 264.665 33.8174C261.968 33.4297 260.451 34.321 259.322 36.0026C256.462 40.2609 255.304 53.4114 269.236 67.1832C280.596 78.3813 296.722 84.1013 316.277 90.2637C317.493 90.6471 318.723 91.0322 319.964 91.4208C320.816 91.6875 321.673 91.9558 322.535 92.2264ZM289.357 131.61C294.209 133.096 298.764 135.339 302.812 138.415C312.749 145.968 318.483 157.694 318.483 172.208C318.483 176.294 316.351 183.047 309.096 184.601C305.731 185.322 302.077 184.489 299.31 182.052C297.815 180.735 296.811 179.167 296.202 177.548C295.148 177.17 294.184 177.197 293.212 177.416C291.314 177.845 288.871 179.21 286.447 181.715C281.477 187.599 278.632 197.374 278.33 208.901C278.029 220.372 280.31 231.713 283.606 239.09L283.619 239.12L283.632 239.149C287.354 247.622 292.303 252.448 297.006 254.782C301.638 257.081 306.756 257.346 311.898 255.455C322.295 251.633 334.68 237.803 337.503 210.145C338.739 197.577 338.209 180.392 334.803 164.126C331.34 147.584 325.262 133.709 316.752 125.919C314.365 123.804 309.098 121.544 295.082 128.902L295.066 128.911L295.05 128.919C293.157 129.904 291.258 130.801 289.357 131.61Z" fill="#8E9BC7"/>
</g>
<g filter="url(#filter5_d_197_784)">
<path fill-rule="evenodd" clip-rule="evenodd" d="M100.133 24.0266L100.042 24.216C97.2578 30.0379 94.7711 36.9353 92.5778 44.5161C108.809 20.2653 132.442 0.471191 166.093 0.471191C183.3 0.471191 197.965 7.11277 207.556 18.7333C216.573 29.6578 220.42 44.1454 218.548 59.5761C218.398 60.4846 218.261 61.4049 218.14 62.337C218.129 62.4179 218.119 62.4989 218.108 62.58C218.106 62.5952 218.104 62.6104 218.102 62.6256C214.871 79.6301 203.569 96.488 181.4 99.0658L180.814 99.1339H180.224C177.774 99.1339 173.301 98.4615 170.17 94.5478C168.423 92.3637 167.484 89.5519 167.704 86.5858C167.772 85.6614 167.946 84.8038 168.188 84.0167C162.952 75.3073 155.645 71.8196 145.707 71.2404C134.906 70.7578 124.722 76.4108 114.907 88.1708C116.083 110.984 125.115 141.351 139.824 169.276C155.399 198.845 176.232 223.581 198.33 234.04L198.429 234.087L198.528 234.136C199.414 234.579 201.537 235.559 203.579 236.305C204.141 236.51 204.619 236.669 205.007 236.786C205.968 236.578 207.061 236.449 208.243 236.502C211.366 236.642 214.974 238.113 217.221 241.644C219.061 244.535 219.083 247.448 218.988 248.87C218.88 250.482 218.498 251.907 218.148 252.958L217.986 253.443L217.777 253.909C207.771 276.195 188.149 288.184 166.857 288.184C146.882 288.184 131.142 279.188 119.288 265.524C107.67 252.131 99.667 234.189 94.1581 215.305C91.1899 205.13 88.8819 194.456 87.1282 183.719C85.7058 212.069 88.9972 241.16 100.056 264.468L100.139 264.644L100.191 264.764C100.248 264.835 100.415 265.057 100.834 265.628C101.264 266.214 102.081 267.368 102.718 268.948C103.399 270.638 103.712 272.393 103.712 274.181C103.712 277.143 102.784 281.105 99.4432 284.236C96.1728 287.302 92.0643 288.184 88.5629 288.184C81.8972 288.184 76.2467 287.781 70.9457 287.402L70.8418 287.395C65.4791 287.012 60.4661 286.657 54.572 286.657C48.8722 286.657 43.8644 287.011 38.4931 287.395L38.3788 287.403C33.0893 287.781 27.438 288.184 20.963 288.184C17.4616 288.184 13.3531 287.302 10.0827 284.236C6.74225 281.105 5.81348 277.143 5.81348 274.181C5.81348 272.393 6.12711 270.638 6.80827 268.948C7.44479 267.368 8.26219 266.214 8.69221 265.628C9.11102 265.057 9.2781 264.835 9.33517 264.764L9.39383 264.627L9.48529 264.436C25.5833 230.809 29.1106 178.667 29.1106 144.328C29.1106 109.612 25.5843 57.8486 9.48529 24.2194L9.39383 24.0284L9.31039 23.8337C9.29634 23.8009 9.28751 23.7789 9.27743 23.7574C9.23289 23.6626 9.16395 23.5792 8.51258 22.6318C7.73369 21.4988 5.81348 18.6623 5.81348 14.4749C5.81348 11.7125 6.53768 7.36991 10.3417 4.04136C13.8131 1.00396 18.0191 0.471191 20.963 0.471191C27.4377 0.471191 33.0888 0.874867 38.3781 1.2527L38.4931 1.26092C43.8644 1.64458 48.8722 1.99888 54.572 1.99888C60.4661 1.99888 65.4791 1.64397 70.8418 1.26092L70.9461 1.25347C76.2469 0.874813 81.8973 0.471191 88.5629 0.471191C91.5067 0.471191 95.7128 1.00396 99.1841 4.04136C102.988 7.36991 103.712 11.7125 103.712 14.4749C103.712 18.6623 101.792 21.4988 101.013 22.6318C100.362 23.5792 100.293 23.6626 100.248 23.7574C100.238 23.7789 100.229 23.8009 100.215 23.8337L100.133 24.0266ZM82.7223 139.242C85.6219 125.645 89.2945 113.608 93.1459 104.226C92.5214 114.564 92.376 126.882 92.9523 140.118C95.548 199.738 112.788 278 166.857 278C181.542 278 195.391 271.029 204.353 257.324C204.551 257.02 204.748 256.713 204.942 256.402C205.914 254.845 206.824 253.206 207.667 251.483C207.742 251.33 207.817 251.176 207.89 251.022C208.093 250.599 208.291 250.171 208.486 249.738C209.25 247.446 208.868 245.919 206.194 247.064C203.903 247.828 196.264 244.391 193.973 243.245C143.941 219.566 105.367 135.162 104.604 84.7483C116.061 69.8534 129.81 60.3054 146.233 61.0692C159.6 61.833 170.676 67.1799 177.932 80.5471C178.696 82.0748 179.46 84.7483 178.314 86.2759C177.168 87.8036 178.314 88.9494 180.224 88.9494C180.697 88.8944 181.164 88.8307 181.625 88.7588C183.916 88.4008 186.051 87.8359 188.035 87.0888C188.316 86.983 188.594 86.8735 188.869 86.7605C199.801 82.2642 205.945 72.0984 208.104 60.6873C212.687 32.8071 195.119 10.6557 166.093 10.6557C124.997 10.6557 100.17 44.5324 84.8373 80.8522C78.5107 95.8382 73.8005 111.24 70.2307 124.85C70.8805 110.554 72.4287 94.1842 74.9634 78.0639C78.3876 56.2871 83.6121 34.9647 90.8544 19.8218C91.3412 18.6859 91.897 17.8947 92.3753 17.2139C93.0226 16.2924 93.5278 15.5731 93.5278 14.4749C93.5278 12.1834 92.3821 10.6557 88.5629 10.6557C82.2612 10.6557 76.9143 11.0377 71.5674 11.4196C66.2205 11.8015 60.8736 12.1834 54.572 12.1834C48.4612 12.1834 43.1144 11.8015 37.7675 11.4196C32.4206 11.0377 27.0737 10.6557 20.963 10.6557C17.1438 10.6557 15.998 12.1834 15.998 14.4749C15.998 15.5731 16.5033 16.2924 17.1506 17.2139C17.6288 17.8947 18.1846 18.6859 18.6715 19.8218C35.8579 55.7223 39.2952 109.573 39.2952 144.328C39.2952 178.701 35.8579 232.933 18.6715 268.834C18.1948 269.946 17.6521 270.662 17.1807 271.283C16.519 272.155 15.998 272.842 15.998 274.181C15.998 276.09 17.1438 278 20.963 278C27.0737 278 32.4206 277.618 37.7675 277.236C43.1144 276.854 48.4612 276.472 54.572 276.472C60.8736 276.472 66.2205 276.854 71.5674 277.236C76.9143 277.618 82.2612 278 88.5629 278C92.3821 278 93.5278 276.09 93.5278 274.181C93.5278 272.842 93.0068 272.155 92.3451 271.283C91.8738 270.662 91.331 269.946 90.8544 268.834C72.4485 230.04 74.4077 178.229 82.7223 139.242Z" fill="#8E9BC7"/>
</g>
<g filter="url(#filter6_d_197_784)">
<path d="M668.529 229.496C681.896 229.496 692.972 240.572 692.972 253.939C692.972 267.306 681.896 278 668.529 278C655.162 278 644.468 267.306 644.468 253.939C644.468 240.572 655.162 229.496 668.529 229.496Z" fill="#F6F1E3"/>
</g>
<g filter="url(#filter7_d_197_784)">
<path fill-rule="evenodd" clip-rule="evenodd" d="M668.529 219.312C687.521 219.312 703.157 234.947 703.157 253.939C703.157 273.139 687.311 288.184 668.529 288.184C649.537 288.184 634.284 272.931 634.284 253.939C634.284 235.157 649.33 219.312 668.529 219.312ZM692.972 253.939C692.972 240.572 681.896 229.496 668.529 229.496C655.162 229.496 644.468 240.572 644.468 253.939C644.468 267.306 655.162 278 668.529 278C681.896 278 692.972 267.306 692.972 253.939Z" fill="#8E9BC7"/>
</g>
<defs>
<filter id="filter0_d_197_784" x="406.626" y="10.6558" width="201.909" height="277.529" filterUnits="userSpaceOnUse" color-interpolation-filters="sRGB">
<feFlood flood-opacity="0" result="BackgroundImageFix"/>
<feColorMatrix in="SourceAlpha" type="matrix" values="0 0 0 0 0 0 0 0 0 0 0 0 0 0 0 0 0 0 127 0" result="hardAlpha"/>
<feOffset dy="5.09227"/>
<feGaussianBlur stdDeviation="2.54613"/>
<feComposite in2="hardAlpha" operator="out"/>
<feColorMatrix type="matrix" values="0 0 0 0 0 0 0 0 0 0 0 0 0 0 0 0 0 0 0.25 0"/>
<feBlend mode="normal" in2="BackgroundImageFix" result="effect1_dropShadow_197_784"/>
<feBlend mode="normal" in="SourceGraphic" in2="effect1_dropShadow_197_784" result="shape"/>
</filter>
<filter id="filter1_d_197_784" x="212.309" y="10.6558" width="193.124" height="277.529" filterUnits="userSpaceOnUse" color-interpolation-filters="sRGB">
<feFlood flood-opacity="0" result="BackgroundImageFix"/>
<feColorMatrix in="SourceAlpha" type="matrix" values="0 0 0 0 0 0 0 0 0 0 0 0 0 0 0 0 0 0 127 0" result="hardAlpha"/>
<feOffset dy="5.09227"/>
<feGaussianBlur stdDeviation="2.54613"/>
<feComposite in2="hardAlpha" operator="out"/>
<feColorMatrix type="matrix" values="0 0 0 0 0 0 0 0 0 0 0 0 0 0 0 0 0 0 0.25 0"/>
<feBlend mode="normal" in2="BackgroundImageFix" result="effect1_dropShadow_197_784"/>
<feBlend mode="normal" in="SourceGraphic" in2="effect1_dropShadow_197_784" result="shape"/>
</filter>
<filter id="filter2_d_197_784" x="10.9058" y="10.6558" width="203.02" height="277.529" filterUnits="userSpaceOnUse" color-interpolation-filters="sRGB">
<feFlood flood-opacity="0" result="BackgroundImageFix"/>
<feColorMatrix in="SourceAlpha" type="matrix" values="0 0 0 0 0 0 0 0 0 0 0 0 0 0 0 0 0 0 127 0" result="hardAlpha"/>
<feOffset dy="5.09227"/>
<feGaussianBlur stdDeviation="2.54613"/>
<feComposite in2="hardAlpha" operator="out"/>
<feColorMatrix type="matrix" values="0 0 0 0 0 0 0 0 0 0 0 0 0 0 0 0 0 0 0.25 0"/>
<feBlend mode="normal" in2="BackgroundImageFix" result="effect1_dropShadow_197_784"/>
<feBlend mode="normal" in="SourceGraphic" in2="effect1_dropShadow_197_784" result="shape"/>
</filter>
<filter id="filter3_d_197_784" x="396.441" y="0.471191" width="222.278" height="297.898" filterUnits="userSpaceOnUse" color-interpolation-filters="sRGB">
<feFlood flood-opacity="0" result="BackgroundImageFix"/>
<feColorMatrix in="SourceAlpha" type="matrix" values="0 0 0 0 0 0 0 0 0 0 0 0 0 0 0 0 0 0 127 0" result="hardAlpha"/>
<feOffset dy="5.09227"/>
<feGaussianBlur stdDeviation="2.54613"/>
<feComposite in2="hardAlpha" operator="out"/>
<feColorMatrix type="matrix" values="0 0 0 0 0 0 0 0 0 0 0 0 0 0 0 0 0 0 0.25 0"/>
<feBlend mode="normal" in2="BackgroundImageFix" result="effect1_dropShadow_197_784"/>
<feBlend mode="normal" in="SourceGraphic" in2="effect1_dropShadow_197_784" result="shape"/>
</filter>
<filter id="filter4_d_197_784" x="202.125" y="0.471191" width="213.494" height="297.898" filterUnits="userSpaceOnUse" color-interpolation-filters="sRGB">
<feFlood flood-opacity="0" result="BackgroundImageFix"/>
<feColorMatrix in="SourceAlpha" type="matrix" values="0 0 0 0 0 0 0 0 0 0 0 0 0 0 0 0 0 0 127 0" result="hardAlpha"/>
<feOffset dy="5.09227"/>
<feGaussianBlur stdDeviation="2.54613"/>
<feComposite in2="hardAlpha" operator="out"/>
<feColorMatrix type="matrix" values="0 0 0 0 0 0 0 0 0 0 0 0 0 0 0 0 0 0 0.25 0"/>
<feBlend mode="normal" in2="BackgroundImageFix" result="effect1_dropShadow_197_784"/>
<feBlend mode="normal" in="SourceGraphic" in2="effect1_dropShadow_197_784" result="shape"/>
</filter>
<filter id="filter5_d_197_784" x="0.721207" y="0.471191" width="223.389" height="297.898" filterUnits="userSpaceOnUse" color-interpolation-filters="sRGB">
<feFlood flood-opacity="0" result="BackgroundImageFix"/>
<feColorMatrix in="SourceAlpha" type="matrix" values="0 0 0 0 0 0 0 0 0 0 0 0 0 0 0 0 0 0 127 0" result="hardAlpha"/>
<feOffset dy="5.09227"/>
<feGaussianBlur stdDeviation="2.54613"/>
<feComposite in2="hardAlpha" operator="out"/>
<feColorMatrix type="matrix" values="0 0 0 0 0 0 0 0 0 0 0 0 0 0 0 0 0 0 0.25 0"/>
<feBlend mode="normal" in2="BackgroundImageFix" result="effect1_dropShadow_197_784"/>
<feBlend mode="normal" in="SourceGraphic" in2="effect1_dropShadow_197_784" result="shape"/>
</filter>
<filter id="filter6_d_197_784" x="639.376" y="229.496" width="58.6884" height="58.6884" filterUnits="userSpaceOnUse" color-interpolation-filters="sRGB">
<feFlood flood-opacity="0" result="BackgroundImageFix"/>
<feColorMatrix in="SourceAlpha" type="matrix" values="0 0 0 0 0 0 0 0 0 0 0 0 0 0 0 0 0 0 127 0" result="hardAlpha"/>
<feOffset dy="5.09227"/>
<feGaussianBlur stdDeviation="2.54613"/>
<feComposite in2="hardAlpha" operator="out"/>
<feColorMatrix type="matrix" values="0 0 0 0 0 0 0 0 0 0 0 0 0 0 0 0 0 0 0.25 0"/>
<feBlend mode="normal" in2="BackgroundImageFix" result="effect1_dropShadow_197_784"/>
<feBlend mode="normal" in="SourceGraphic" in2="effect1_dropShadow_197_784" result="shape"/>
</filter>
<filter id="filter7_d_197_784" x="629.191" y="219.312" width="79.0576" height="79.0575" filterUnits="userSpaceOnUse" color-interpolation-filters="sRGB">
<feFlood flood-opacity="0" result="BackgroundImageFix"/>
<feColorMatrix in="SourceAlpha" type="matrix" values="0 0 0 0 0 0 0 0 0 0 0 0 0 0 0 0 0 0 127 0" result="hardAlpha"/>
<feOffset dy="5.09227"/>
<feGaussianBlur stdDeviation="2.54613"/>
<feComposite in2="hardAlpha" operator="out"/>
<feColorMatrix type="matrix" values="0 0 0 0 0 0 0 0 0 0 0 0 0 0 0 0 0 0 0.25 0"/>
<feBlend mode="normal" in2="BackgroundImageFix" result="effect1_dropShadow_197_784"/>
<feBlend mode="normal" in="SourceGraphic" in2="effect1_dropShadow_197_784" result="shape"/>
</filter>
</defs>
</svg>
