<svg width="984" height="975" viewBox="0 0 984 975" fill="none" xmlns="http://www.w3.org/2000/svg">
<path d="M485.651 553.072C562.345 563.955 604.343 611.361 547.871 656.913C527.918 669.262 497.416 666.058 482.948 665.668" stroke="#9FB8F2" stroke-width="50.9076" stroke-linecap="round" stroke-linejoin="round"/>
<path d="M329.451 318.699C326.238 287.19 330.631 219.568 373.907 201.158C417.183 182.748 460.272 230.186 476.408 256.206" stroke="#9FB8F2" stroke-width="50.9076" stroke-linecap="round" stroke-linejoin="round"/>
<path d="M487.395 552.655C688.894 606.966 716.933 557.436 722.466 542.865C730.452 521.831 692.428 460.938 614.88 431.825C576.552 417.437 544.002 413.869 525.948 412.75" stroke="#9FB8F2" stroke-width="50.9076" stroke-linecap="round" stroke-linejoin="round"/>
<path d="M464.187 428.403C537.76 412.866 697.011 346.272 670.118 267.029C640.979 217.807 507.617 248.1 475.27 257.916C375.192 288.288 285.681 355.861 253.505 396.259C202.591 460.178 185.514 513.299 196.987 573.843C202.649 603.723 246.445 686.911 320.581 732.8C365.231 760.438 451.817 782.084 502.462 765.01C556.177 746.9 539.417 680.539 488.198 666.276" stroke="#9FB8F2" stroke-width="50.9076" stroke-linecap="round" stroke-linejoin="round"/>
<path d="M485.651 553.072C562.345 563.955 604.343 611.361 547.871 656.913C527.918 669.262 497.416 666.058 482.948 665.668" stroke="#FFC959" stroke-width="15.6286" stroke-linecap="round" stroke-linejoin="round"/>
<path d="M329.451 318.699C326.238 287.19 330.631 219.568 373.907 201.158C417.183 182.748 460.272 230.186 476.408 256.206" stroke="#FFC959" stroke-width="15.6286" stroke-linecap="round" stroke-linejoin="round"/>
<path d="M487.395 552.655C688.894 606.966 716.933 557.436 722.466 542.865C730.452 521.831 692.428 460.938 614.88 431.825C576.552 417.437 544.002 413.869 525.948 412.75" stroke="#FFC959" stroke-width="15.6286" stroke-linecap="round" stroke-linejoin="round"/>
<path d="M464.187 428.403C537.76 412.866 697.011 346.272 670.118 267.029C640.979 217.807 507.617 248.1 475.27 257.916C375.192 288.288 285.681 355.861 253.505 396.259C202.591 460.178 185.514 513.299 196.987 573.843C202.649 603.723 246.445 686.911 320.581 732.8C365.231 760.438 451.817 782.084 502.462 765.01C556.177 746.9 539.417 680.539 488.198 666.276" stroke="#FFC959" stroke-width="15.6286" stroke-linecap="round" stroke-linejoin="round"/>
<path d="M792.77 353.595C762.065 332.337 708.963 355.533 733.171 394.447C743.023 404.867 761.718 408.541 776.298 396.843C792.011 384.236 806.868 392.299 811.923 399.126C816.978 405.953 819.264 428.198 807.196 443.244C792.657 461.37 758.039 453.273 749 448.049" stroke="#9FB8F2" stroke-width="42.423" stroke-linecap="round" stroke-linejoin="round"/>
<path d="M849.006 427.719C852.4 394.564 862.003 334.15 864.26 328.276C868.602 316.978 886.209 305.346 899.79 323.354C910.655 337.761 920.274 400.317 923.725 429.793M860.921 379.382C874.368 383.146 901.841 382.873 910.277 381.348" stroke="#9FB8F2" stroke-width="42.423" stroke-linecap="round" stroke-linejoin="round"/>
<path d="M849.006 427.719C852.4 394.564 862.003 334.15 864.26 328.276C868.602 316.978 886.209 305.346 899.79 323.354C910.655 337.761 920.274 400.317 923.725 429.793M860.921 379.382C874.368 383.146 901.841 382.873 910.277 381.348" stroke="#FFC959" stroke-width="19.8976" stroke-linecap="round" stroke-linejoin="round"/>
<path d="M792.77 353.595C762.065 332.337 708.963 355.533 733.171 394.447C743.023 404.867 761.718 408.541 776.298 396.843C792.011 384.236 806.868 392.299 811.923 399.126C816.978 405.953 819.264 428.198 807.196 443.244C792.657 461.37 758.039 453.273 749 448.049" stroke="#FFC959" stroke-width="19.8976" stroke-linecap="round" stroke-linejoin="round"/>
</svg>
